<svg width="400" height="400" viewBox="0 0 400 400" fill="none" xmlns="http://www.w3.org/2000/svg">
<rect width="400" height="400" fill="white"/>
<g clip-path="url(#clip0_602_86)">
<path fill-rule="evenodd" clip-rule="evenodd" d="M216.413 80.0187L295.868 126.229C300.492 128.918 304.328 132.773 306.995 137.409C309.661 142.045 311.064 147.299 311.064 152.647V247.395C311.063 253.307 309.49 259.112 306.506 264.216C303.522 269.32 299.235 273.538 294.084 276.438L215.225 320.843C210.082 323.739 204.273 325.247 198.37 325.219C192.467 325.191 186.673 323.628 181.557 320.684L108.935 278.883C103.329 275.656 98.6722 271.008 95.434 265.408C92.1957 259.809 90.4905 253.454 90.49 246.985V157.071C90.4894 150.558 92.1545 144.152 95.327 138.464C98.4995 132.775 103.074 127.992 108.616 124.57L180.008 80.4979C185.465 77.1303 191.733 75.307 198.144 75.2226C204.556 75.1382 210.87 76.7959 216.413 80.0187Z" fill="#FF4088" stroke="#C9177E" stroke-width="27"/>
<path fill-rule="evenodd" clip-rule="evenodd" d="M145.646 271.549V127.639H175.751V180.059H225.698V127.639H255.894V271.549H225.698V208.622H175.751V271.549H145.646Z" fill="white"/>
</g>
<defs>
<clipPath id="clip0_602_86">
<rect width="249" height="278" fill="white" transform="translate(76 61)"/>
</clipPath>
</defs>
</svg>
