<svg width="400" height="400" viewBox="0 0 400 400" fill="none" xmlns="http://www.w3.org/2000/svg">
<g clip-path="url(#clip0_602_92)">
<rect width="400" height="400" fill="white"/>
<g clip-path="url(#clip1_602_92)">
<path fill-rule="evenodd" clip-rule="evenodd" d="M8.50633 -4.99971H391.038C393.063 -5.01214 395.071 -4.62504 396.946 -3.86054C398.822 -3.09603 400.529 -1.96912 401.969 -0.544222C403.409 0.880676 404.554 2.57561 405.339 4.44369C406.124 6.31177 406.534 8.31635 406.544 10.3428V388.792C406.534 390.819 406.124 392.823 405.339 394.691C404.554 396.56 403.409 398.254 401.969 399.679C400.529 401.104 398.822 402.231 396.946 402.996C395.071 403.76 393.063 404.147 391.038 404.135H8.50633C6.48107 404.147 4.47323 403.76 2.59758 402.996C0.721935 402.231 -0.984729 401.104 -2.42484 399.679C-3.86495 398.254 -5.01026 396.56 -5.7953 394.691C-6.58034 392.823 -6.9897 390.819 -7 388.792L-7 10.3428C-6.9897 8.31635 -6.58034 6.31177 -5.7953 4.44369C-5.01026 2.57561 -3.86495 0.880676 -2.42484 -0.544222C-0.984729 -1.96912 0.721935 -3.09603 2.59758 -3.86054C4.47323 -4.62504 6.48107 -5.01214 8.50633 -4.99971ZM222.89 212.66V179.111H75.6899V212.66H128.248V362.073H170.08V212.66H222.89ZM239.56 358.123C246.307 361.522 254.28 364.087 263.496 365.786C272.696 367.486 282.415 368.336 292.621 368.336C302.56 368.336 312.012 367.391 320.96 365.535C329.909 363.646 337.756 360.578 344.503 356.282C351.25 351.986 356.581 346.368 360.528 339.444C364.476 332.521 366.426 323.929 366.426 313.716C366.426 306.32 365.293 299.837 363.044 294.266C360.816 288.717 357.513 283.663 353.326 279.396C349.079 275.069 344 271.166 338.071 267.72C332.142 264.274 325.49 261.032 318.035 257.964C313.083 255.967 308.195 253.816 303.378 251.512C299.528 249.706 295.84 247.574 292.354 245.139C289.634 243.271 287.265 240.938 285.356 238.247C283.71 235.821 282.848 232.948 282.887 230.017C282.887 227.216 283.626 224.682 285.088 222.432C286.567 220.182 288.627 218.246 291.316 216.61C294.005 214.973 297.292 213.746 301.176 212.864C305.061 211.967 309.386 211.527 314.151 211.527C321.777 211.59 329.363 212.643 336.718 214.658C340.603 215.713 344.393 217.05 348.073 218.671C351.737 220.276 355.15 222.149 358.248 224.273V186.129C351.552 183.645 344.616 181.868 337.552 180.826C329.026 179.608 320.42 179.034 311.808 179.111C302.381 179.065 292.982 180.115 283.799 182.242C274.976 184.319 267.207 187.577 260.508 191.999C253.808 196.42 248.508 202.07 244.624 208.899C240.724 215.744 238.774 223.943 238.774 233.463C238.774 245.627 242.344 256.012 249.468 264.604C256.623 273.196 267.443 280.466 281.974 286.414C287.683 288.712 292.999 290.978 297.937 293.181C302.859 295.384 307.121 297.697 310.707 300.073C314.292 302.449 317.123 305.046 319.199 307.847C320.998 310.255 322.066 313.131 322.276 316.131C322.485 319.131 321.826 322.127 320.378 324.763C319.073 327.013 317.107 328.964 314.465 330.632C311.823 332.3 308.552 333.591 304.605 334.519C300.673 335.463 296.065 335.935 290.797 335.935C281.684 335.912 272.643 334.331 264.062 331.262C255.134 328.095 246.838 323.369 239.56 317.304V358.123Z" fill="#3178C6"/>
</g>
</g>
<defs>
<clipPath id="clip0_602_92">
<rect width="400" height="400" fill="white"/>
</clipPath>
<clipPath id="clip1_602_92">
<rect width="414" height="410" fill="white" transform="translate(-7 -5)"/>
</clipPath>
</defs>
</svg>
