<svg width="796" height="557" viewBox="0 0 796 557" fill="none" xmlns="http://www.w3.org/2000/svg">
<rect width="796" height="557" rx="16" fill="white"/>
<path d="M269.797 81V46.6641H276.148V60.7031H291.664V46.6641H298.016V81H291.664V65.7188H276.148V81H269.797ZM315.055 81.4688C310.914 81.4688 307.203 80.5156 303.922 78.6094L305.469 73.5703C306.938 74.3828 308.531 75.0391 310.25 75.5391C311.984 76.0391 313.672 76.2891 315.312 76.2891C317.328 76.2891 318.852 75.8594 319.883 75C320.914 74.125 321.43 72.875 321.43 71.25C321.43 69.0938 319.992 67.6016 317.117 66.7734C316.914 66.7109 316.344 66.5469 315.406 66.2812C314.469 66 313.586 65.7344 312.758 65.4844C311.945 65.2188 311.359 65.0156 311 64.875C306.391 63.25 304.086 60.2188 304.086 55.7812C304.086 52.6719 305.188 50.2734 307.391 48.5859C309.609 46.8984 312.547 46.0547 316.203 46.0547C320.344 46.0547 323.914 46.9062 326.914 48.6094L324.992 53.25C321.93 51.875 319.086 51.1875 316.461 51.1875C314.57 51.1875 313.141 51.5234 312.172 52.1953C311.219 52.8516 310.711 53.9531 310.648 55.5C310.648 57.4062 311.594 58.6484 313.484 59.2266C313.859 59.3672 314.781 59.6719 316.25 60.1406C317.719 60.6094 318.672 60.9141 319.109 61.0547C322.25 62.0859 324.492 63.3672 325.836 64.8984C327.195 66.4297 327.875 68.5625 327.875 71.2969C327.875 74.5625 326.719 77.0781 324.406 78.8438C322.094 80.5938 318.977 81.4688 315.055 81.4688ZM333.312 81V46.6641H339.664V75.9375H354.031L353.844 81H333.312ZM369.078 70.5703V65.7891H381.641V70.5703H369.078ZM395.961 81L408.594 46.6406H415.508L427.953 81H421.438L418.039 71.2969H406.016L402.594 81H395.961ZM407.609 66.5625H416.422C413.609 57.5469 412.164 52.8906 412.086 52.5938L407.609 66.5625ZM440.047 81.3516C438.281 81.3516 436.812 81.1484 435.641 80.7422C434.484 80.3203 433.57 79.6562 432.898 78.75C432.227 77.8438 431.758 76.7656 431.492 75.5156C431.227 74.2656 431.094 72.7109 431.094 70.8516V45.75L437.234 45.3516V70.7344C437.234 73.0469 437.508 74.6172 438.055 75.4453C438.602 76.2578 439.664 76.6641 441.242 76.6641C442.023 76.6641 443.016 76.5781 444.219 76.4062L444.383 80.7891C444.367 80.7891 444.172 80.8281 443.797 80.9062C443.438 80.9844 443.086 81.0469 442.742 81.0938C442.414 81.1562 441.992 81.2109 441.477 81.2578C440.961 81.3203 440.484 81.3516 440.047 81.3516ZM447.43 91.7109V55.2422H452.703L453.359 58.8516C454.203 57.4922 455.32 56.4453 456.711 55.7109C458.117 54.9609 459.68 54.5859 461.398 54.5859C463.508 54.5859 465.359 55.1719 466.953 56.3438C468.562 57.5156 469.781 59.1172 470.609 61.1484C471.438 63.1641 471.852 65.4453 471.852 67.9922C471.852 71.9766 470.883 75.2266 468.945 77.7422C467.023 80.2422 464.414 81.4922 461.117 81.4922C459.492 81.4922 458.016 81.1719 456.688 80.5312C455.375 79.875 454.273 78.9922 453.383 77.8828C453.508 80.1328 453.57 81.3984 453.57 81.6797V91.4062L447.43 91.7109ZM459.805 76.8047C461.633 76.8047 463.07 76.0391 464.117 74.5078C465.18 72.9766 465.711 70.7891 465.711 67.9453C465.711 65.0547 465.18 62.8828 464.117 61.4297C463.055 59.9766 461.578 59.25 459.688 59.25C455.625 59.25 453.57 62.0156 453.523 67.5469C453.523 70.7344 454.047 73.0781 455.094 74.5781C456.156 76.0625 457.727 76.8047 459.805 76.8047ZM476.867 81V45.75L483.008 45.3516V52.7812C483.008 53.1406 482.984 54.1406 482.938 55.7812C482.891 57.4062 482.867 58.2344 482.867 58.2656C484.914 55.8281 487.664 54.6094 491.117 54.6094C493.992 54.6094 496.219 55.4375 497.797 57.0938C499.391 58.7344 500.188 61.2656 500.188 64.6875V81H494.047V65.3672C494.047 63.2578 493.711 61.7109 493.039 60.7266C492.367 59.7422 491.227 59.25 489.617 59.25C488.242 59.25 487.023 59.6016 485.961 60.3047C484.898 60.9922 484.102 61.8828 483.57 62.9766C483.195 64.4141 483.008 66.2891 483.008 68.6016V81H476.867ZM513.055 81.4922C510.664 81.4922 508.727 80.8359 507.242 79.5234C505.773 78.1953 505.039 76.2891 505.039 73.8047C505.039 71.1328 505.914 69.1562 507.664 67.875C509.414 66.5781 512.055 65.7578 515.586 65.4141C516.07 65.3516 516.594 65.2891 517.156 65.2266C517.719 65.1641 518.352 65.1016 519.055 65.0391C519.758 64.9766 520.312 64.9219 520.719 64.875V63.5156C520.719 61.9531 520.359 60.8203 519.641 60.1172C518.922 59.3984 517.828 59.0391 516.359 59.0391C514.266 59.0391 511.68 59.625 508.602 60.7969C508.586 60.75 508.328 60.0391 507.828 58.6641C507.328 57.2891 507.07 56.5859 507.055 56.5547C510.086 55.2578 513.367 54.6094 516.898 54.6094C520.367 54.6094 522.891 55.3672 524.469 56.8828C526.047 58.3828 526.836 60.8203 526.836 64.1953V81H522.289C522.273 80.9375 522.102 80.4141 521.773 79.4297C521.445 78.4453 521.281 77.9219 521.281 77.8594C520 79.1094 518.742 80.0312 517.508 80.625C516.289 81.2031 514.805 81.4922 513.055 81.4922ZM514.719 77.1328C516.141 77.1328 517.375 76.7969 518.422 76.125C519.484 75.4375 520.242 74.6094 520.695 73.6406V68.6719C520.648 68.6719 520.234 68.7031 519.453 68.7656C518.688 68.8281 518.273 68.8594 518.211 68.8594C515.727 69.0781 513.906 69.5469 512.75 70.2656C511.594 70.9844 511.016 72.1406 511.016 73.7344C511.016 74.8281 511.336 75.6719 511.977 76.2656C512.617 76.8438 513.531 77.1328 514.719 77.1328Z" fill="black"/>
<rect width="100" height="100" transform="translate(32 125)" fill="#FF8A00"/>
<path d="M181.227 190.5V177.551C181.227 175.402 180.882 173.84 180.191 172.863C179.514 171.887 178.323 171.398 176.617 171.398C174.977 171.398 173.59 171.809 172.457 172.629C171.337 173.449 170.608 174.51 170.27 175.812C170.152 176.789 170.094 177.876 170.094 179.074V190.5H166.832V160.754L170.094 160.559V169.27C170.094 170.012 170.068 170.93 170.016 172.023C171.852 169.758 174.286 168.625 177.32 168.625C182.099 168.625 184.488 171.431 184.488 177.043V190.5H181.227ZM194.898 190.949C193.44 190.949 192.092 190.793 190.855 190.48C189.632 190.168 188.635 189.764 187.867 189.27L188.277 186.516C190.452 187.674 192.587 188.254 194.684 188.254C197.861 188.254 199.495 187.134 199.586 184.895C199.586 183.944 199.247 183.195 198.57 182.648C197.893 182.102 196.565 181.49 194.586 180.812L192.965 180.246C191.09 179.621 189.749 178.846 188.941 177.922C188.147 176.997 187.743 175.845 187.73 174.465C187.73 172.785 188.401 171.392 189.742 170.285C191.096 169.178 192.945 168.625 195.289 168.625C197.711 168.625 199.918 169.094 201.91 170.031L200.953 172.531C198.935 171.698 197.047 171.281 195.289 171.281C193.922 171.281 192.848 171.555 192.066 172.102C191.298 172.635 190.914 173.391 190.914 174.367C190.914 175.201 191.194 175.839 191.754 176.281C192.314 176.724 193.434 177.232 195.113 177.805C195.543 177.961 196.083 178.143 196.734 178.352C198.896 179.055 200.426 179.888 201.324 180.852C202.223 181.802 202.672 183.091 202.672 184.719C202.646 186.698 201.936 188.234 200.543 189.328C199.15 190.409 197.268 190.949 194.898 190.949ZM212.906 190.891C210.823 190.891 209.345 190.331 208.473 189.211C207.613 188.091 207.184 186.145 207.184 183.371V160.754L210.426 160.559V182.082C210.426 182.967 210.432 183.677 210.445 184.211C210.471 184.745 210.523 185.272 210.602 185.793C210.68 186.301 210.784 186.685 210.914 186.945C211.044 187.206 211.233 187.447 211.48 187.668C211.728 187.876 212.021 188.02 212.359 188.098C212.711 188.163 213.141 188.195 213.648 188.195C214.065 188.195 214.885 188.117 216.109 187.961L216.285 190.559C214.944 190.78 213.818 190.891 212.906 190.891ZM217.496 178.82C217.496 172.44 219.273 166.659 222.828 161.477H225.855C222.496 166.711 220.816 172.466 220.816 178.742C220.816 181.685 221.259 184.654 222.145 187.648C223.03 190.643 224.267 193.358 225.855 195.793H222.867C221.188 193.462 219.872 190.839 218.922 187.922C217.971 184.992 217.496 181.958 217.496 178.82Z" fill="black"/>
<path d="M253.688 190.949C251.943 190.949 250.387 190.721 249.02 190.266C247.665 189.81 246.676 189.283 246.051 188.684L247.145 185.812C248.98 187.258 251.168 187.98 253.707 187.98C255.66 187.98 257.21 187.499 258.355 186.535C259.514 185.559 260.094 184.198 260.094 182.453C260.094 181.503 259.944 180.676 259.645 179.973C259.358 179.257 258.967 178.684 258.473 178.254C257.991 177.811 257.366 177.46 256.598 177.199C255.842 176.926 255.061 176.737 254.254 176.633C253.46 176.516 252.535 176.444 251.48 176.418C251.35 176.418 251.155 176.418 250.895 176.418C250.634 176.405 250.439 176.398 250.309 176.398V173.488H251.285C252.197 173.475 252.997 173.43 253.688 173.352C254.391 173.26 255.087 173.104 255.777 172.883C256.48 172.661 257.06 172.368 257.516 172.004C257.971 171.639 258.342 171.151 258.629 170.539C258.915 169.927 259.059 169.204 259.059 168.371C259.059 165.246 257.268 163.684 253.688 163.684C252.398 163.684 251.188 163.872 250.055 164.25C248.922 164.628 247.952 165.135 247.145 165.773L246.051 162.922C247.991 161.451 250.784 160.715 254.43 160.715C255.901 160.715 257.262 160.988 258.512 161.535C259.762 162.069 260.79 162.896 261.598 164.016C262.405 165.122 262.809 166.424 262.809 167.922C262.809 169.745 262.359 171.242 261.461 172.414C260.562 173.586 259.299 174.426 257.672 174.934C259.495 175.324 260.921 176.177 261.949 177.492C262.991 178.807 263.512 180.474 263.512 182.492C263.512 185.057 262.594 187.108 260.758 188.645C258.922 190.181 256.565 190.949 253.688 190.949ZM275.25 190.949C273.505 190.949 271.949 190.721 270.582 190.266C269.228 189.81 268.238 189.283 267.613 188.684L268.707 185.812C270.543 187.258 272.73 187.98 275.27 187.98C277.223 187.98 278.772 187.499 279.918 186.535C281.077 185.559 281.656 184.198 281.656 182.453C281.656 181.503 281.507 180.676 281.207 179.973C280.921 179.257 280.53 178.684 280.035 178.254C279.553 177.811 278.928 177.46 278.16 177.199C277.405 176.926 276.624 176.737 275.816 176.633C275.022 176.516 274.098 176.444 273.043 176.418C272.913 176.418 272.717 176.418 272.457 176.418C272.197 176.405 272.001 176.398 271.871 176.398V173.488H272.848C273.759 173.475 274.56 173.43 275.25 173.352C275.953 173.26 276.65 173.104 277.34 172.883C278.043 172.661 278.622 172.368 279.078 172.004C279.534 171.639 279.905 171.151 280.191 170.539C280.478 169.927 280.621 169.204 280.621 168.371C280.621 165.246 278.831 163.684 275.25 163.684C273.961 163.684 272.75 163.872 271.617 164.25C270.484 164.628 269.514 165.135 268.707 165.773L267.613 162.922C269.553 161.451 272.346 160.715 275.992 160.715C277.464 160.715 278.824 160.988 280.074 161.535C281.324 162.069 282.353 162.896 283.16 164.016C283.967 165.122 284.371 166.424 284.371 167.922C284.371 169.745 283.922 171.242 283.023 172.414C282.125 173.586 280.862 174.426 279.234 174.934C281.057 175.324 282.483 176.177 283.512 177.492C284.553 178.807 285.074 180.474 285.074 182.492C285.074 185.057 284.156 187.108 282.32 188.645C280.484 190.181 278.128 190.949 275.25 190.949ZM306.734 161.281L306.461 164.484H294.527C294.397 168.273 294.299 171.34 294.234 173.684C295.706 172.746 297.301 172.277 299.02 172.277C300.465 172.277 301.754 172.512 302.887 172.98C304.033 173.436 304.964 174.068 305.68 174.875C306.409 175.682 306.962 176.626 307.34 177.707C307.717 178.775 307.906 179.934 307.906 181.184C307.906 184.139 306.956 186.509 305.055 188.293C303.167 190.064 300.595 190.949 297.34 190.949C294.072 190.949 291.454 190.057 289.488 188.273L290.758 185.52C292.685 187.03 294.918 187.785 297.457 187.785C299.592 187.785 301.279 187.18 302.516 185.969C303.753 184.758 304.371 183.176 304.371 181.223C304.371 179.478 303.85 178.065 302.809 176.984C301.767 175.891 300.283 175.344 298.355 175.344C296.428 175.344 294.879 175.988 293.707 177.277L290.992 176.906L291.754 161.281H306.734ZM321.285 188.137C323.434 188.137 325.029 187.447 326.07 186.066C327.125 184.686 327.652 182.714 327.652 180.148C327.652 177.258 327.145 175.083 326.129 173.625C325.126 172.154 323.499 171.418 321.246 171.418C320.243 171.418 319.358 171.633 318.59 172.062C317.822 172.492 317.203 173.091 316.734 173.859C316.266 174.628 315.908 175.513 315.66 176.516C315.426 177.505 315.309 178.592 315.309 179.777C315.309 181.444 315.51 182.889 315.914 184.113C316.331 185.337 316.995 186.314 317.906 187.043C318.818 187.772 319.944 188.137 321.285 188.137ZM327.711 187.395C327.008 188.475 326.07 189.335 324.898 189.973C323.727 190.611 322.418 190.93 320.973 190.93C318.147 190.93 315.934 189.927 314.332 187.922C312.73 185.904 311.93 183.163 311.93 179.699C311.93 176.392 312.743 173.723 314.371 171.691C315.999 169.647 318.18 168.625 320.914 168.625C322.333 168.625 323.668 168.938 324.918 169.562C326.181 170.174 327.125 171.001 327.75 172.043L327.691 170.188V160.754L330.914 160.559V190.5H328.141L327.711 187.395ZM348.941 173.039C347.991 171.893 346.682 171.32 345.016 171.32C343.349 171.32 341.988 171.913 340.934 173.098C339.879 174.27 339.26 175.878 339.078 177.922H350.387C350.387 175.799 349.905 174.172 348.941 173.039ZM345.66 190.949C342.548 190.949 340.094 189.96 338.297 187.98C336.513 186.001 335.621 183.293 335.621 179.855C335.621 176.535 336.487 173.846 338.219 171.789C339.951 169.719 342.229 168.664 345.055 168.625C347.711 168.625 349.814 169.536 351.363 171.359C352.926 173.169 353.707 175.591 353.707 178.625C353.707 178.781 353.701 179.068 353.688 179.484C353.688 179.901 353.688 180.201 353.688 180.383H338.98C339.02 182.818 339.645 184.719 340.855 186.086C342.079 187.44 343.72 188.117 345.777 188.117C348.043 188.117 350.315 187.518 352.594 186.32L353.102 188.957C350.927 190.285 348.447 190.949 345.66 190.949ZM366.559 187.707C367.665 187.707 368.635 187.512 369.469 187.121C370.302 186.73 370.953 186.19 371.422 185.5C371.891 184.81 372.236 184.042 372.457 183.195C372.691 182.349 372.809 181.424 372.809 180.422V178.84C372.809 177.798 372.691 176.841 372.457 175.969C372.223 175.083 371.858 174.296 371.363 173.605C370.882 172.902 370.23 172.355 369.41 171.965C368.603 171.574 367.659 171.379 366.578 171.379C365.68 171.379 364.859 171.548 364.117 171.887C363.388 172.225 362.783 172.674 362.301 173.234C361.832 173.781 361.428 174.426 361.09 175.168C360.764 175.897 360.53 176.639 360.387 177.395C360.243 178.15 360.172 178.911 360.172 179.68C360.172 180.435 360.25 181.184 360.406 181.926C360.562 182.668 360.81 183.391 361.148 184.094C361.487 184.797 361.897 185.415 362.379 185.949C362.861 186.47 363.46 186.893 364.176 187.219C364.905 187.544 365.699 187.707 366.559 187.707ZM361.539 200.305L361.246 197.355H365.23C366.337 197.355 367.301 197.277 368.121 197.121C368.941 196.965 369.625 196.704 370.172 196.34C370.719 195.988 371.161 195.591 371.5 195.148C371.839 194.719 372.092 194.152 372.262 193.449C372.444 192.759 372.561 192.069 372.613 191.379C372.678 190.702 372.711 189.868 372.711 188.879V186.984C371.93 188.104 371.025 188.97 369.996 189.582C368.967 190.181 367.659 190.48 366.07 190.48C364.846 190.48 363.714 190.272 362.672 189.855C361.643 189.426 360.771 188.859 360.055 188.156C359.352 187.453 358.746 186.639 358.238 185.715C357.743 184.79 357.379 183.833 357.145 182.844C356.923 181.854 356.812 180.858 356.812 179.855C356.812 178.293 357.001 176.848 357.379 175.52C357.77 174.191 358.342 173.007 359.098 171.965C359.853 170.923 360.842 170.109 362.066 169.523C363.303 168.924 364.716 168.625 366.305 168.625C367.711 168.625 368.935 168.898 369.977 169.445C371.031 169.979 371.975 170.806 372.809 171.926V169.074H375.992V188.957C375.992 189.868 375.966 190.663 375.914 191.34C375.875 192.03 375.764 192.792 375.582 193.625C375.413 194.458 375.178 195.174 374.879 195.773C374.579 196.372 374.156 196.971 373.609 197.57C373.076 198.182 372.431 198.671 371.676 199.035C370.934 199.413 370.009 199.719 368.902 199.953C367.796 200.188 366.546 200.305 365.152 200.305H361.539Z" fill="black"/>
<path d="M400.898 161.281H404.004V190.5H400.547V164.895C399.232 165.754 397.624 166.49 395.723 167.102V163.84C395.931 163.749 396.354 163.566 396.992 163.293C397.63 163.02 398.105 162.811 398.418 162.668C398.743 162.525 399.147 162.323 399.629 162.062C400.111 161.802 400.534 161.542 400.898 161.281ZM423.906 189.816C422.617 190.572 421.107 190.949 419.375 190.949C417.643 190.949 416.126 190.572 414.824 189.816C413.522 189.048 412.474 187.974 411.68 186.594C410.898 185.214 410.312 183.625 409.922 181.828C409.544 180.031 409.355 178.033 409.355 175.832C409.355 174.022 409.479 172.349 409.727 170.812C409.987 169.276 410.384 167.883 410.918 166.633C411.452 165.383 412.109 164.322 412.891 163.449C413.685 162.577 414.629 161.906 415.723 161.438C416.816 160.956 418.034 160.715 419.375 160.715C421.042 160.715 422.513 161.079 423.789 161.809C425.078 162.538 426.12 163.579 426.914 164.934C427.721 166.275 428.327 167.863 428.73 169.699C429.134 171.522 429.336 173.566 429.336 175.832C429.336 178.033 429.147 180.031 428.77 181.828C428.392 183.625 427.812 185.214 427.031 186.594C426.25 187.974 425.208 189.048 423.906 189.816ZM422.793 165.266C421.842 164.211 420.703 163.684 419.375 163.684C418.047 163.684 416.908 164.211 415.957 165.266C415.007 166.307 414.29 167.727 413.809 169.523C413.34 171.307 413.105 173.371 413.105 175.715C413.105 178.098 413.34 180.207 413.809 182.043C414.29 183.866 415.007 185.311 415.957 186.379C416.908 187.447 418.047 187.98 419.375 187.98C420.703 187.98 421.842 187.447 422.793 186.379C423.743 185.311 424.453 183.866 424.922 182.043C425.404 180.207 425.645 178.098 425.645 175.715C425.645 173.371 425.404 171.307 424.922 169.523C424.453 167.727 423.743 166.307 422.793 165.266ZM448.164 189.816C446.875 190.572 445.365 190.949 443.633 190.949C441.901 190.949 440.384 190.572 439.082 189.816C437.78 189.048 436.732 187.974 435.938 186.594C435.156 185.214 434.57 183.625 434.18 181.828C433.802 180.031 433.613 178.033 433.613 175.832C433.613 174.022 433.737 172.349 433.984 170.812C434.245 169.276 434.642 167.883 435.176 166.633C435.71 165.383 436.367 164.322 437.148 163.449C437.943 162.577 438.887 161.906 439.98 161.438C441.074 160.956 442.292 160.715 443.633 160.715C445.299 160.715 446.771 161.079 448.047 161.809C449.336 162.538 450.378 163.579 451.172 164.934C451.979 166.275 452.585 167.863 452.988 169.699C453.392 171.522 453.594 173.566 453.594 175.832C453.594 178.033 453.405 180.031 453.027 181.828C452.65 183.625 452.07 185.214 451.289 186.594C450.508 187.974 449.466 189.048 448.164 189.816ZM447.051 165.266C446.1 164.211 444.961 163.684 443.633 163.684C442.305 163.684 441.165 164.211 440.215 165.266C439.264 166.307 438.548 167.727 438.066 169.523C437.598 171.307 437.363 173.371 437.363 175.715C437.363 178.098 437.598 180.207 438.066 182.043C438.548 183.866 439.264 185.311 440.215 186.379C441.165 187.447 442.305 187.98 443.633 187.98C444.961 187.98 446.1 187.447 447.051 186.379C448.001 185.311 448.711 183.866 449.18 182.043C449.661 180.207 449.902 178.098 449.902 175.715C449.902 173.371 449.661 171.307 449.18 169.523C448.711 167.727 448.001 166.307 447.051 165.266ZM483.691 175.773C485.892 175.773 487.591 176.47 488.789 177.863C489.987 179.243 490.586 181.053 490.586 183.293C490.586 185.48 489.974 187.277 488.75 188.684C487.539 190.09 485.853 190.793 483.691 190.793C481.504 190.793 479.811 190.096 478.613 188.703C477.415 187.297 476.816 185.493 476.816 183.293C476.816 181.092 477.422 179.289 478.633 177.883C479.844 176.477 481.53 175.773 483.691 175.773ZM486.934 179.523C486.165 178.508 485.085 178 483.691 178C482.298 178 481.211 178.514 480.43 179.543C479.661 180.572 479.277 181.822 479.277 183.293C479.277 184.79 479.661 186.047 480.43 187.062C481.211 188.078 482.298 188.586 483.691 188.586C485.085 188.586 486.165 188.072 486.934 187.043C487.715 186.014 488.105 184.764 488.105 183.293C488.105 181.796 487.715 180.539 486.934 179.523ZM463.574 190.578L479.102 161.945H482.266L466.211 190.578H463.574ZM463.945 161.418C465.833 161.418 467.344 162.128 468.477 163.547C469.622 164.953 470.195 166.75 470.195 168.938C470.195 171.073 469.622 172.831 468.477 174.211C467.331 175.591 465.82 176.281 463.945 176.281C462.057 176.281 460.553 175.598 459.434 174.23C458.314 172.85 457.754 171.086 457.754 168.938C457.754 166.763 458.314 164.966 459.434 163.547C460.566 162.128 462.07 161.418 463.945 161.418ZM463.945 163.586C462.773 163.586 461.862 164.107 461.211 165.148C460.56 166.19 460.234 167.453 460.234 168.938C460.234 170.435 460.553 171.659 461.191 172.609C461.842 173.547 462.76 174.016 463.945 174.016C465.13 174.016 466.048 173.534 466.699 172.57C467.35 171.594 467.676 170.383 467.676 168.938C467.676 167.44 467.344 166.177 466.68 165.148C466.016 164.107 465.104 163.586 463.945 163.586Z" fill="black"/>
<path d="M514.898 161.281H518.004V190.5H514.547V164.895C513.232 165.754 511.624 166.49 509.723 167.102V163.84C509.931 163.749 510.354 163.566 510.992 163.293C511.63 163.02 512.105 162.811 512.418 162.668C512.743 162.525 513.147 162.323 513.629 162.062C514.111 161.802 514.534 161.542 514.898 161.281ZM537.906 189.816C536.617 190.572 535.107 190.949 533.375 190.949C531.643 190.949 530.126 190.572 528.824 189.816C527.522 189.048 526.474 187.974 525.68 186.594C524.898 185.214 524.312 183.625 523.922 181.828C523.544 180.031 523.355 178.033 523.355 175.832C523.355 174.022 523.479 172.349 523.727 170.812C523.987 169.276 524.384 167.883 524.918 166.633C525.452 165.383 526.109 164.322 526.891 163.449C527.685 162.577 528.629 161.906 529.723 161.438C530.816 160.956 532.034 160.715 533.375 160.715C535.042 160.715 536.513 161.079 537.789 161.809C539.078 162.538 540.12 163.579 540.914 164.934C541.721 166.275 542.327 167.863 542.73 169.699C543.134 171.522 543.336 173.566 543.336 175.832C543.336 178.033 543.147 180.031 542.77 181.828C542.392 183.625 541.812 185.214 541.031 186.594C540.25 187.974 539.208 189.048 537.906 189.816ZM536.793 165.266C535.842 164.211 534.703 163.684 533.375 163.684C532.047 163.684 530.908 164.211 529.957 165.266C529.007 166.307 528.29 167.727 527.809 169.523C527.34 171.307 527.105 173.371 527.105 175.715C527.105 178.098 527.34 180.207 527.809 182.043C528.29 183.866 529.007 185.311 529.957 186.379C530.908 187.447 532.047 187.98 533.375 187.98C534.703 187.98 535.842 187.447 536.793 186.379C537.743 185.311 538.453 183.866 538.922 182.043C539.404 180.207 539.645 178.098 539.645 175.715C539.645 173.371 539.404 171.307 538.922 169.523C538.453 167.727 537.743 166.307 536.793 165.266ZM562.164 189.816C560.875 190.572 559.365 190.949 557.633 190.949C555.901 190.949 554.384 190.572 553.082 189.816C551.78 189.048 550.732 187.974 549.938 186.594C549.156 185.214 548.57 183.625 548.18 181.828C547.802 180.031 547.613 178.033 547.613 175.832C547.613 174.022 547.737 172.349 547.984 170.812C548.245 169.276 548.642 167.883 549.176 166.633C549.71 165.383 550.367 164.322 551.148 163.449C551.943 162.577 552.887 161.906 553.98 161.438C555.074 160.956 556.292 160.715 557.633 160.715C559.299 160.715 560.771 161.079 562.047 161.809C563.336 162.538 564.378 163.579 565.172 164.934C565.979 166.275 566.585 167.863 566.988 169.699C567.392 171.522 567.594 173.566 567.594 175.832C567.594 178.033 567.405 180.031 567.027 181.828C566.65 183.625 566.07 185.214 565.289 186.594C564.508 187.974 563.466 189.048 562.164 189.816ZM561.051 165.266C560.1 164.211 558.961 163.684 557.633 163.684C556.305 163.684 555.165 164.211 554.215 165.266C553.264 166.307 552.548 167.727 552.066 169.523C551.598 171.307 551.363 173.371 551.363 175.715C551.363 178.098 551.598 180.207 552.066 182.043C552.548 183.866 553.264 185.311 554.215 186.379C555.165 187.447 556.305 187.98 557.633 187.98C558.961 187.98 560.1 187.447 561.051 186.379C562.001 185.311 562.711 183.866 563.18 182.043C563.661 180.207 563.902 178.098 563.902 175.715C563.902 173.371 563.661 171.307 563.18 169.523C562.711 167.727 562.001 166.307 561.051 165.266ZM597.691 175.773C599.892 175.773 601.591 176.47 602.789 177.863C603.987 179.243 604.586 181.053 604.586 183.293C604.586 185.48 603.974 187.277 602.75 188.684C601.539 190.09 599.853 190.793 597.691 190.793C595.504 190.793 593.811 190.096 592.613 188.703C591.415 187.297 590.816 185.493 590.816 183.293C590.816 181.092 591.422 179.289 592.633 177.883C593.844 176.477 595.53 175.773 597.691 175.773ZM600.934 179.523C600.165 178.508 599.085 178 597.691 178C596.298 178 595.211 178.514 594.43 179.543C593.661 180.572 593.277 181.822 593.277 183.293C593.277 184.79 593.661 186.047 594.43 187.062C595.211 188.078 596.298 188.586 597.691 188.586C599.085 188.586 600.165 188.072 600.934 187.043C601.715 186.014 602.105 184.764 602.105 183.293C602.105 181.796 601.715 180.539 600.934 179.523ZM577.574 190.578L593.102 161.945H596.266L580.211 190.578H577.574ZM577.945 161.418C579.833 161.418 581.344 162.128 582.477 163.547C583.622 164.953 584.195 166.75 584.195 168.938C584.195 171.073 583.622 172.831 582.477 174.211C581.331 175.591 579.82 176.281 577.945 176.281C576.057 176.281 574.553 175.598 573.434 174.23C572.314 172.85 571.754 171.086 571.754 168.938C571.754 166.763 572.314 164.966 573.434 163.547C574.566 162.128 576.07 161.418 577.945 161.418ZM577.945 163.586C576.773 163.586 575.862 164.107 575.211 165.148C574.56 166.19 574.234 167.453 574.234 168.938C574.234 170.435 574.553 171.659 575.191 172.609C575.842 173.547 576.76 174.016 577.945 174.016C579.13 174.016 580.048 173.534 580.699 172.57C581.35 171.594 581.676 170.383 581.676 168.938C581.676 167.44 581.344 166.177 580.68 165.148C580.016 164.107 579.104 163.586 577.945 163.586Z" fill="black"/>
<path d="M626.789 194.758H623.977L637.18 161.867H640.031L626.789 194.758Z" fill="black"/>
<path d="M663.918 190.48V166.672C663.736 166.789 662.889 167.167 661.379 167.805C659.882 168.43 659.035 168.768 658.84 168.82V164.914C659.152 164.771 660.142 164.283 661.809 163.449C663.475 162.603 664.393 162.121 664.562 162.004H668.859V190.48H663.918Z" fill="black"/>
<path d="M697.883 178.82C697.883 181.958 697.408 184.986 696.457 187.902C695.507 190.819 694.185 193.449 692.492 195.793H689.523C691.112 193.358 692.349 190.643 693.234 187.648C694.12 184.654 694.562 181.685 694.562 178.742C694.562 172.492 692.876 166.737 689.504 161.477H692.531C696.099 166.737 697.883 172.518 697.883 178.82Z" fill="black"/>
<rect width="100" height="100" transform="translate(32 225)" fill="#F89F39"/>
<path d="M181.227 290.5V277.551C181.227 275.402 180.882 273.84 180.191 272.863C179.514 271.887 178.323 271.398 176.617 271.398C174.977 271.398 173.59 271.809 172.457 272.629C171.337 273.449 170.608 274.51 170.27 275.812C170.152 276.789 170.094 277.876 170.094 279.074V290.5H166.832V260.754L170.094 260.559V269.27C170.094 270.012 170.068 270.93 170.016 272.023C171.852 269.758 174.286 268.625 177.32 268.625C182.099 268.625 184.488 271.431 184.488 277.043V290.5H181.227ZM194.898 290.949C193.44 290.949 192.092 290.793 190.855 290.48C189.632 290.168 188.635 289.764 187.867 289.27L188.277 286.516C190.452 287.674 192.587 288.254 194.684 288.254C197.861 288.254 199.495 287.134 199.586 284.895C199.586 283.944 199.247 283.195 198.57 282.648C197.893 282.102 196.565 281.49 194.586 280.812L192.965 280.246C191.09 279.621 189.749 278.846 188.941 277.922C188.147 276.997 187.743 275.845 187.73 274.465C187.73 272.785 188.401 271.392 189.742 270.285C191.096 269.178 192.945 268.625 195.289 268.625C197.711 268.625 199.918 269.094 201.91 270.031L200.953 272.531C198.935 271.698 197.047 271.281 195.289 271.281C193.922 271.281 192.848 271.555 192.066 272.102C191.298 272.635 190.914 273.391 190.914 274.367C190.914 275.201 191.194 275.839 191.754 276.281C192.314 276.724 193.434 277.232 195.113 277.805C195.543 277.961 196.083 278.143 196.734 278.352C198.896 279.055 200.426 279.888 201.324 280.852C202.223 281.802 202.672 283.091 202.672 284.719C202.646 286.698 201.936 288.234 200.543 289.328C199.15 290.409 197.268 290.949 194.898 290.949ZM212.906 290.891C210.823 290.891 209.345 290.331 208.473 289.211C207.613 288.091 207.184 286.145 207.184 283.371V260.754L210.426 260.559V282.082C210.426 282.967 210.432 283.677 210.445 284.211C210.471 284.745 210.523 285.272 210.602 285.793C210.68 286.301 210.784 286.685 210.914 286.945C211.044 287.206 211.233 287.447 211.48 287.668C211.728 287.876 212.021 288.02 212.359 288.098C212.711 288.163 213.141 288.195 213.648 288.195C214.065 288.195 214.885 288.117 216.109 287.961L216.285 290.559C214.944 290.78 213.818 290.891 212.906 290.891ZM217.496 278.82C217.496 272.44 219.273 266.659 222.828 261.477H225.855C222.496 266.711 220.816 272.466 220.816 278.742C220.816 281.685 221.259 284.654 222.145 287.648C223.03 290.643 224.267 293.358 225.855 295.793H222.867C221.188 293.462 219.872 290.839 218.922 287.922C217.971 284.992 217.496 281.958 217.496 278.82Z" fill="black"/>
<path d="M253.688 290.949C251.943 290.949 250.387 290.721 249.02 290.266C247.665 289.81 246.676 289.283 246.051 288.684L247.145 285.812C248.98 287.258 251.168 287.98 253.707 287.98C255.66 287.98 257.21 287.499 258.355 286.535C259.514 285.559 260.094 284.198 260.094 282.453C260.094 281.503 259.944 280.676 259.645 279.973C259.358 279.257 258.967 278.684 258.473 278.254C257.991 277.811 257.366 277.46 256.598 277.199C255.842 276.926 255.061 276.737 254.254 276.633C253.46 276.516 252.535 276.444 251.48 276.418C251.35 276.418 251.155 276.418 250.895 276.418C250.634 276.405 250.439 276.398 250.309 276.398V273.488H251.285C252.197 273.475 252.997 273.43 253.688 273.352C254.391 273.26 255.087 273.104 255.777 272.883C256.48 272.661 257.06 272.368 257.516 272.004C257.971 271.639 258.342 271.151 258.629 270.539C258.915 269.927 259.059 269.204 259.059 268.371C259.059 265.246 257.268 263.684 253.688 263.684C252.398 263.684 251.188 263.872 250.055 264.25C248.922 264.628 247.952 265.135 247.145 265.773L246.051 262.922C247.991 261.451 250.784 260.715 254.43 260.715C255.901 260.715 257.262 260.988 258.512 261.535C259.762 262.069 260.79 262.896 261.598 264.016C262.405 265.122 262.809 266.424 262.809 267.922C262.809 269.745 262.359 271.242 261.461 272.414C260.562 273.586 259.299 274.426 257.672 274.934C259.495 275.324 260.921 276.177 261.949 277.492C262.991 278.807 263.512 280.474 263.512 282.492C263.512 285.057 262.594 287.108 260.758 288.645C258.922 290.181 256.565 290.949 253.688 290.949ZM275.25 290.949C273.505 290.949 271.949 290.721 270.582 290.266C269.228 289.81 268.238 289.283 267.613 288.684L268.707 285.812C270.543 287.258 272.73 287.98 275.27 287.98C277.223 287.98 278.772 287.499 279.918 286.535C281.077 285.559 281.656 284.198 281.656 282.453C281.656 281.503 281.507 280.676 281.207 279.973C280.921 279.257 280.53 278.684 280.035 278.254C279.553 277.811 278.928 277.46 278.16 277.199C277.405 276.926 276.624 276.737 275.816 276.633C275.022 276.516 274.098 276.444 273.043 276.418C272.913 276.418 272.717 276.418 272.457 276.418C272.197 276.405 272.001 276.398 271.871 276.398V273.488H272.848C273.759 273.475 274.56 273.43 275.25 273.352C275.953 273.26 276.65 273.104 277.34 272.883C278.043 272.661 278.622 272.368 279.078 272.004C279.534 271.639 279.905 271.151 280.191 270.539C280.478 269.927 280.621 269.204 280.621 268.371C280.621 265.246 278.831 263.684 275.25 263.684C273.961 263.684 272.75 263.872 271.617 264.25C270.484 264.628 269.514 265.135 268.707 265.773L267.613 262.922C269.553 261.451 272.346 260.715 275.992 260.715C277.464 260.715 278.824 260.988 280.074 261.535C281.324 262.069 282.353 262.896 283.16 264.016C283.967 265.122 284.371 266.424 284.371 267.922C284.371 269.745 283.922 271.242 283.023 272.414C282.125 273.586 280.862 274.426 279.234 274.934C281.057 275.324 282.483 276.177 283.512 277.492C284.553 278.807 285.074 280.474 285.074 282.492C285.074 285.057 284.156 287.108 282.32 288.645C280.484 290.181 278.128 290.949 275.25 290.949ZM306.734 261.281L306.461 264.484H294.527C294.397 268.273 294.299 271.34 294.234 273.684C295.706 272.746 297.301 272.277 299.02 272.277C300.465 272.277 301.754 272.512 302.887 272.98C304.033 273.436 304.964 274.068 305.68 274.875C306.409 275.682 306.962 276.626 307.34 277.707C307.717 278.775 307.906 279.934 307.906 281.184C307.906 284.139 306.956 286.509 305.055 288.293C303.167 290.064 300.595 290.949 297.34 290.949C294.072 290.949 291.454 290.057 289.488 288.273L290.758 285.52C292.685 287.03 294.918 287.785 297.457 287.785C299.592 287.785 301.279 287.18 302.516 285.969C303.753 284.758 304.371 283.176 304.371 281.223C304.371 279.478 303.85 278.065 302.809 276.984C301.767 275.891 300.283 275.344 298.355 275.344C296.428 275.344 294.879 275.988 293.707 277.277L290.992 276.906L291.754 261.281H306.734ZM321.285 288.137C323.434 288.137 325.029 287.447 326.07 286.066C327.125 284.686 327.652 282.714 327.652 280.148C327.652 277.258 327.145 275.083 326.129 273.625C325.126 272.154 323.499 271.418 321.246 271.418C320.243 271.418 319.358 271.633 318.59 272.062C317.822 272.492 317.203 273.091 316.734 273.859C316.266 274.628 315.908 275.513 315.66 276.516C315.426 277.505 315.309 278.592 315.309 279.777C315.309 281.444 315.51 282.889 315.914 284.113C316.331 285.337 316.995 286.314 317.906 287.043C318.818 287.772 319.944 288.137 321.285 288.137ZM327.711 287.395C327.008 288.475 326.07 289.335 324.898 289.973C323.727 290.611 322.418 290.93 320.973 290.93C318.147 290.93 315.934 289.927 314.332 287.922C312.73 285.904 311.93 283.163 311.93 279.699C311.93 276.392 312.743 273.723 314.371 271.691C315.999 269.647 318.18 268.625 320.914 268.625C322.333 268.625 323.668 268.938 324.918 269.562C326.181 270.174 327.125 271.001 327.75 272.043L327.691 270.188V260.754L330.914 260.559V290.5H328.141L327.711 287.395ZM348.941 273.039C347.991 271.893 346.682 271.32 345.016 271.32C343.349 271.32 341.988 271.913 340.934 273.098C339.879 274.27 339.26 275.878 339.078 277.922H350.387C350.387 275.799 349.905 274.172 348.941 273.039ZM345.66 290.949C342.548 290.949 340.094 289.96 338.297 287.98C336.513 286.001 335.621 283.293 335.621 279.855C335.621 276.535 336.487 273.846 338.219 271.789C339.951 269.719 342.229 268.664 345.055 268.625C347.711 268.625 349.814 269.536 351.363 271.359C352.926 273.169 353.707 275.591 353.707 278.625C353.707 278.781 353.701 279.068 353.688 279.484C353.688 279.901 353.688 280.201 353.688 280.383H338.98C339.02 282.818 339.645 284.719 340.855 286.086C342.079 287.44 343.72 288.117 345.777 288.117C348.043 288.117 350.315 287.518 352.594 286.32L353.102 288.957C350.927 290.285 348.447 290.949 345.66 290.949ZM366.559 287.707C367.665 287.707 368.635 287.512 369.469 287.121C370.302 286.73 370.953 286.19 371.422 285.5C371.891 284.81 372.236 284.042 372.457 283.195C372.691 282.349 372.809 281.424 372.809 280.422V278.84C372.809 277.798 372.691 276.841 372.457 275.969C372.223 275.083 371.858 274.296 371.363 273.605C370.882 272.902 370.23 272.355 369.41 271.965C368.603 271.574 367.659 271.379 366.578 271.379C365.68 271.379 364.859 271.548 364.117 271.887C363.388 272.225 362.783 272.674 362.301 273.234C361.832 273.781 361.428 274.426 361.09 275.168C360.764 275.897 360.53 276.639 360.387 277.395C360.243 278.15 360.172 278.911 360.172 279.68C360.172 280.435 360.25 281.184 360.406 281.926C360.562 282.668 360.81 283.391 361.148 284.094C361.487 284.797 361.897 285.415 362.379 285.949C362.861 286.47 363.46 286.893 364.176 287.219C364.905 287.544 365.699 287.707 366.559 287.707ZM361.539 300.305L361.246 297.355H365.23C366.337 297.355 367.301 297.277 368.121 297.121C368.941 296.965 369.625 296.704 370.172 296.34C370.719 295.988 371.161 295.591 371.5 295.148C371.839 294.719 372.092 294.152 372.262 293.449C372.444 292.759 372.561 292.069 372.613 291.379C372.678 290.702 372.711 289.868 372.711 288.879V286.984C371.93 288.104 371.025 288.97 369.996 289.582C368.967 290.181 367.659 290.48 366.07 290.48C364.846 290.48 363.714 290.272 362.672 289.855C361.643 289.426 360.771 288.859 360.055 288.156C359.352 287.453 358.746 286.639 358.238 285.715C357.743 284.79 357.379 283.833 357.145 282.844C356.923 281.854 356.812 280.858 356.812 279.855C356.812 278.293 357.001 276.848 357.379 275.52C357.77 274.191 358.342 273.007 359.098 271.965C359.853 270.923 360.842 270.109 362.066 269.523C363.303 268.924 364.716 268.625 366.305 268.625C367.711 268.625 368.935 268.898 369.977 269.445C371.031 269.979 371.975 270.806 372.809 271.926V269.074H375.992V288.957C375.992 289.868 375.966 290.663 375.914 291.34C375.875 292.03 375.764 292.792 375.582 293.625C375.413 294.458 375.178 295.174 374.879 295.773C374.579 296.372 374.156 296.971 373.609 297.57C373.076 298.182 372.431 298.671 371.676 299.035C370.934 299.413 370.009 299.719 368.902 299.953C367.796 300.188 366.546 300.305 365.152 300.305H361.539Z" fill="black"/>
<path d="M400.898 261.281H404.004V290.5H400.547V264.895C399.232 265.754 397.624 266.49 395.723 267.102V263.84C395.931 263.749 396.354 263.566 396.992 263.293C397.63 263.02 398.105 262.811 398.418 262.668C398.743 262.525 399.147 262.323 399.629 262.062C400.111 261.802 400.534 261.542 400.898 261.281ZM423.906 289.816C422.617 290.572 421.107 290.949 419.375 290.949C417.643 290.949 416.126 290.572 414.824 289.816C413.522 289.048 412.474 287.974 411.68 286.594C410.898 285.214 410.312 283.625 409.922 281.828C409.544 280.031 409.355 278.033 409.355 275.832C409.355 274.022 409.479 272.349 409.727 270.812C409.987 269.276 410.384 267.883 410.918 266.633C411.452 265.383 412.109 264.322 412.891 263.449C413.685 262.577 414.629 261.906 415.723 261.438C416.816 260.956 418.034 260.715 419.375 260.715C421.042 260.715 422.513 261.079 423.789 261.809C425.078 262.538 426.12 263.579 426.914 264.934C427.721 266.275 428.327 267.863 428.73 269.699C429.134 271.522 429.336 273.566 429.336 275.832C429.336 278.033 429.147 280.031 428.77 281.828C428.392 283.625 427.812 285.214 427.031 286.594C426.25 287.974 425.208 289.048 423.906 289.816ZM422.793 265.266C421.842 264.211 420.703 263.684 419.375 263.684C418.047 263.684 416.908 264.211 415.957 265.266C415.007 266.307 414.29 267.727 413.809 269.523C413.34 271.307 413.105 273.371 413.105 275.715C413.105 278.098 413.34 280.207 413.809 282.043C414.29 283.866 415.007 285.311 415.957 286.379C416.908 287.447 418.047 287.98 419.375 287.98C420.703 287.98 421.842 287.447 422.793 286.379C423.743 285.311 424.453 283.866 424.922 282.043C425.404 280.207 425.645 278.098 425.645 275.715C425.645 273.371 425.404 271.307 424.922 269.523C424.453 267.727 423.743 266.307 422.793 265.266ZM448.164 289.816C446.875 290.572 445.365 290.949 443.633 290.949C441.901 290.949 440.384 290.572 439.082 289.816C437.78 289.048 436.732 287.974 435.938 286.594C435.156 285.214 434.57 283.625 434.18 281.828C433.802 280.031 433.613 278.033 433.613 275.832C433.613 274.022 433.737 272.349 433.984 270.812C434.245 269.276 434.642 267.883 435.176 266.633C435.71 265.383 436.367 264.322 437.148 263.449C437.943 262.577 438.887 261.906 439.98 261.438C441.074 260.956 442.292 260.715 443.633 260.715C445.299 260.715 446.771 261.079 448.047 261.809C449.336 262.538 450.378 263.579 451.172 264.934C451.979 266.275 452.585 267.863 452.988 269.699C453.392 271.522 453.594 273.566 453.594 275.832C453.594 278.033 453.405 280.031 453.027 281.828C452.65 283.625 452.07 285.214 451.289 286.594C450.508 287.974 449.466 289.048 448.164 289.816ZM447.051 265.266C446.1 264.211 444.961 263.684 443.633 263.684C442.305 263.684 441.165 264.211 440.215 265.266C439.264 266.307 438.548 267.727 438.066 269.523C437.598 271.307 437.363 273.371 437.363 275.715C437.363 278.098 437.598 280.207 438.066 282.043C438.548 283.866 439.264 285.311 440.215 286.379C441.165 287.447 442.305 287.98 443.633 287.98C444.961 287.98 446.1 287.447 447.051 286.379C448.001 285.311 448.711 283.866 449.18 282.043C449.661 280.207 449.902 278.098 449.902 275.715C449.902 273.371 449.661 271.307 449.18 269.523C448.711 267.727 448.001 266.307 447.051 265.266ZM483.691 275.773C485.892 275.773 487.591 276.47 488.789 277.863C489.987 279.243 490.586 281.053 490.586 283.293C490.586 285.48 489.974 287.277 488.75 288.684C487.539 290.09 485.853 290.793 483.691 290.793C481.504 290.793 479.811 290.096 478.613 288.703C477.415 287.297 476.816 285.493 476.816 283.293C476.816 281.092 477.422 279.289 478.633 277.883C479.844 276.477 481.53 275.773 483.691 275.773ZM486.934 279.523C486.165 278.508 485.085 278 483.691 278C482.298 278 481.211 278.514 480.43 279.543C479.661 280.572 479.277 281.822 479.277 283.293C479.277 284.79 479.661 286.047 480.43 287.062C481.211 288.078 482.298 288.586 483.691 288.586C485.085 288.586 486.165 288.072 486.934 287.043C487.715 286.014 488.105 284.764 488.105 283.293C488.105 281.796 487.715 280.539 486.934 279.523ZM463.574 290.578L479.102 261.945H482.266L466.211 290.578H463.574ZM463.945 261.418C465.833 261.418 467.344 262.128 468.477 263.547C469.622 264.953 470.195 266.75 470.195 268.938C470.195 271.073 469.622 272.831 468.477 274.211C467.331 275.591 465.82 276.281 463.945 276.281C462.057 276.281 460.553 275.598 459.434 274.23C458.314 272.85 457.754 271.086 457.754 268.938C457.754 266.763 458.314 264.966 459.434 263.547C460.566 262.128 462.07 261.418 463.945 261.418ZM463.945 263.586C462.773 263.586 461.862 264.107 461.211 265.148C460.56 266.19 460.234 267.453 460.234 268.938C460.234 270.435 460.553 271.659 461.191 272.609C461.842 273.547 462.76 274.016 463.945 274.016C465.13 274.016 466.048 273.534 466.699 272.57C467.35 271.594 467.676 270.383 467.676 268.938C467.676 267.44 467.344 266.177 466.68 265.148C466.016 264.107 465.104 263.586 463.945 263.586Z" fill="black"/>
<path d="M514.898 261.281H518.004V290.5H514.547V264.895C513.232 265.754 511.624 266.49 509.723 267.102V263.84C509.931 263.749 510.354 263.566 510.992 263.293C511.63 263.02 512.105 262.811 512.418 262.668C512.743 262.525 513.147 262.323 513.629 262.062C514.111 261.802 514.534 261.542 514.898 261.281ZM537.906 289.816C536.617 290.572 535.107 290.949 533.375 290.949C531.643 290.949 530.126 290.572 528.824 289.816C527.522 289.048 526.474 287.974 525.68 286.594C524.898 285.214 524.312 283.625 523.922 281.828C523.544 280.031 523.355 278.033 523.355 275.832C523.355 274.022 523.479 272.349 523.727 270.812C523.987 269.276 524.384 267.883 524.918 266.633C525.452 265.383 526.109 264.322 526.891 263.449C527.685 262.577 528.629 261.906 529.723 261.438C530.816 260.956 532.034 260.715 533.375 260.715C535.042 260.715 536.513 261.079 537.789 261.809C539.078 262.538 540.12 263.579 540.914 264.934C541.721 266.275 542.327 267.863 542.73 269.699C543.134 271.522 543.336 273.566 543.336 275.832C543.336 278.033 543.147 280.031 542.77 281.828C542.392 283.625 541.812 285.214 541.031 286.594C540.25 287.974 539.208 289.048 537.906 289.816ZM536.793 265.266C535.842 264.211 534.703 263.684 533.375 263.684C532.047 263.684 530.908 264.211 529.957 265.266C529.007 266.307 528.29 267.727 527.809 269.523C527.34 271.307 527.105 273.371 527.105 275.715C527.105 278.098 527.34 280.207 527.809 282.043C528.29 283.866 529.007 285.311 529.957 286.379C530.908 287.447 532.047 287.98 533.375 287.98C534.703 287.98 535.842 287.447 536.793 286.379C537.743 285.311 538.453 283.866 538.922 282.043C539.404 280.207 539.645 278.098 539.645 275.715C539.645 273.371 539.404 271.307 538.922 269.523C538.453 267.727 537.743 266.307 536.793 265.266ZM562.164 289.816C560.875 290.572 559.365 290.949 557.633 290.949C555.901 290.949 554.384 290.572 553.082 289.816C551.78 289.048 550.732 287.974 549.938 286.594C549.156 285.214 548.57 283.625 548.18 281.828C547.802 280.031 547.613 278.033 547.613 275.832C547.613 274.022 547.737 272.349 547.984 270.812C548.245 269.276 548.642 267.883 549.176 266.633C549.71 265.383 550.367 264.322 551.148 263.449C551.943 262.577 552.887 261.906 553.98 261.438C555.074 260.956 556.292 260.715 557.633 260.715C559.299 260.715 560.771 261.079 562.047 261.809C563.336 262.538 564.378 263.579 565.172 264.934C565.979 266.275 566.585 267.863 566.988 269.699C567.392 271.522 567.594 273.566 567.594 275.832C567.594 278.033 567.405 280.031 567.027 281.828C566.65 283.625 566.07 285.214 565.289 286.594C564.508 287.974 563.466 289.048 562.164 289.816ZM561.051 265.266C560.1 264.211 558.961 263.684 557.633 263.684C556.305 263.684 555.165 264.211 554.215 265.266C553.264 266.307 552.548 267.727 552.066 269.523C551.598 271.307 551.363 273.371 551.363 275.715C551.363 278.098 551.598 280.207 552.066 282.043C552.548 283.866 553.264 285.311 554.215 286.379C555.165 287.447 556.305 287.98 557.633 287.98C558.961 287.98 560.1 287.447 561.051 286.379C562.001 285.311 562.711 283.866 563.18 282.043C563.661 280.207 563.902 278.098 563.902 275.715C563.902 273.371 563.661 271.307 563.18 269.523C562.711 267.727 562.001 266.307 561.051 265.266ZM597.691 275.773C599.892 275.773 601.591 276.47 602.789 277.863C603.987 279.243 604.586 281.053 604.586 283.293C604.586 285.48 603.974 287.277 602.75 288.684C601.539 290.09 599.853 290.793 597.691 290.793C595.504 290.793 593.811 290.096 592.613 288.703C591.415 287.297 590.816 285.493 590.816 283.293C590.816 281.092 591.422 279.289 592.633 277.883C593.844 276.477 595.53 275.773 597.691 275.773ZM600.934 279.523C600.165 278.508 599.085 278 597.691 278C596.298 278 595.211 278.514 594.43 279.543C593.661 280.572 593.277 281.822 593.277 283.293C593.277 284.79 593.661 286.047 594.43 287.062C595.211 288.078 596.298 288.586 597.691 288.586C599.085 288.586 600.165 288.072 600.934 287.043C601.715 286.014 602.105 284.764 602.105 283.293C602.105 281.796 601.715 280.539 600.934 279.523ZM577.574 290.578L593.102 261.945H596.266L580.211 290.578H577.574ZM577.945 261.418C579.833 261.418 581.344 262.128 582.477 263.547C583.622 264.953 584.195 266.75 584.195 268.938C584.195 271.073 583.622 272.831 582.477 274.211C581.331 275.591 579.82 276.281 577.945 276.281C576.057 276.281 574.553 275.598 573.434 274.23C572.314 272.85 571.754 271.086 571.754 268.938C571.754 266.763 572.314 264.966 573.434 263.547C574.566 262.128 576.07 261.418 577.945 261.418ZM577.945 263.586C576.773 263.586 575.862 264.107 575.211 265.148C574.56 266.19 574.234 267.453 574.234 268.938C574.234 270.435 574.553 271.659 575.191 272.609C575.842 273.547 576.76 274.016 577.945 274.016C579.13 274.016 580.048 273.534 580.699 272.57C581.35 271.594 581.676 270.383 581.676 268.938C581.676 267.44 581.344 266.177 580.68 265.148C580.016 264.107 579.104 263.586 577.945 263.586Z" fill="black"/>
<path d="M626.789 294.758H623.977L637.18 261.867H640.031L626.789 294.758Z" fill="black"/>
<path d="M668 285.949C668.742 286.548 669.634 286.848 670.676 286.848C671.717 286.848 672.603 286.548 673.332 285.949C674.074 285.35 674.634 284.523 675.012 283.469C675.402 282.401 675.682 281.268 675.852 280.07C676.021 278.859 676.105 277.518 676.105 276.047C676.105 268.99 674.296 265.461 670.676 265.461C667.082 265.461 665.259 268.964 665.207 275.969C665.207 277.453 665.292 278.801 665.461 280.012C665.63 281.223 665.91 282.368 666.301 283.449C666.691 284.517 667.258 285.35 668 285.949ZM674.836 290.129C673.612 290.65 672.225 290.91 670.676 290.91C669.126 290.91 667.733 290.65 666.496 290.129C665.259 289.595 664.237 288.879 663.43 287.98C662.622 287.069 661.945 285.982 661.398 284.719C660.865 283.456 660.48 282.121 660.246 280.715C660.025 279.309 659.914 277.805 659.914 276.203C659.914 274.576 660.031 273.052 660.266 271.633C660.5 270.201 660.891 268.853 661.438 267.59C661.984 266.314 662.661 265.227 663.469 264.328C664.289 263.43 665.311 262.72 666.535 262.199C667.759 261.665 669.139 261.398 670.676 261.398C672.212 261.398 673.592 261.665 674.816 262.199C676.04 262.72 677.056 263.436 677.863 264.348C678.671 265.246 679.341 266.333 679.875 267.609C680.422 268.872 680.812 270.214 681.047 271.633C681.281 273.052 681.398 274.576 681.398 276.203C681.398 277.805 681.281 279.309 681.047 280.715C680.826 282.121 680.448 283.462 679.914 284.738C679.38 286.001 678.71 287.082 677.902 287.98C677.095 288.879 676.073 289.595 674.836 290.129ZM688.098 290.852C687.251 290.852 686.535 290.559 685.949 289.973C685.363 289.387 685.07 288.69 685.07 287.883C685.07 287.062 685.357 286.353 685.93 285.754C686.516 285.155 687.238 284.855 688.098 284.855C688.931 284.855 689.634 285.155 690.207 285.754C690.78 286.353 691.066 287.062 691.066 287.883C691.066 288.69 690.78 289.387 690.207 289.973C689.634 290.559 688.931 290.852 688.098 290.852ZM697.199 290.5L705.832 265.93H694.035L694.074 262.004H711.652V265.07L702.434 290.5H697.199ZM723.391 290.91C722.102 290.91 720.773 290.702 719.406 290.285C718.039 289.855 716.997 289.452 716.281 289.074C715.565 288.684 715.09 288.384 714.855 288.176L716.418 284.504C716.665 284.699 717.023 284.947 717.492 285.246C717.974 285.533 718.742 285.865 719.797 286.242C720.865 286.62 721.887 286.809 722.863 286.809C724.686 286.809 726.066 286.301 727.004 285.285C727.941 284.27 728.41 282.941 728.41 281.301C728.41 279.751 727.98 278.508 727.121 277.57C726.275 276.633 725.174 276.164 723.82 276.164C722.206 276.164 720.76 276.867 719.484 278.273L716.066 277.609L716.809 262.023H732.355L732.062 266.047H721.34C721.34 266.281 721.294 267.46 721.203 269.582C721.125 271.691 721.079 272.87 721.066 273.117C722.212 272.505 723.417 272.199 724.68 272.199C727.31 272.199 729.426 273.046 731.027 274.738C732.642 276.431 733.449 278.638 733.449 281.359C733.449 284.25 732.564 286.568 730.793 288.312C729.035 290.044 726.568 290.91 723.391 290.91Z" fill="black"/>
<path d="M761.883 278.82C761.883 281.958 761.408 284.986 760.457 287.902C759.507 290.819 758.185 293.449 756.492 295.793H753.523C755.112 293.358 756.349 290.643 757.234 287.648C758.12 284.654 758.562 281.685 758.562 278.742C758.562 272.492 756.876 266.737 753.504 261.477H756.531C760.099 266.737 761.883 272.518 761.883 278.82Z" fill="black"/>
<rect width="100" height="100" transform="translate(32 325)" fill="#F2B672"/>
<path d="M181.227 390.5V377.551C181.227 375.402 180.882 373.84 180.191 372.863C179.514 371.887 178.323 371.398 176.617 371.398C174.977 371.398 173.59 371.809 172.457 372.629C171.337 373.449 170.608 374.51 170.27 375.812C170.152 376.789 170.094 377.876 170.094 379.074V390.5H166.832V360.754L170.094 360.559V369.27C170.094 370.012 170.068 370.93 170.016 372.023C171.852 369.758 174.286 368.625 177.32 368.625C182.099 368.625 184.488 371.431 184.488 377.043V390.5H181.227ZM194.898 390.949C193.44 390.949 192.092 390.793 190.855 390.48C189.632 390.168 188.635 389.764 187.867 389.27L188.277 386.516C190.452 387.674 192.587 388.254 194.684 388.254C197.861 388.254 199.495 387.134 199.586 384.895C199.586 383.944 199.247 383.195 198.57 382.648C197.893 382.102 196.565 381.49 194.586 380.812L192.965 380.246C191.09 379.621 189.749 378.846 188.941 377.922C188.147 376.997 187.743 375.845 187.73 374.465C187.73 372.785 188.401 371.392 189.742 370.285C191.096 369.178 192.945 368.625 195.289 368.625C197.711 368.625 199.918 369.094 201.91 370.031L200.953 372.531C198.935 371.698 197.047 371.281 195.289 371.281C193.922 371.281 192.848 371.555 192.066 372.102C191.298 372.635 190.914 373.391 190.914 374.367C190.914 375.201 191.194 375.839 191.754 376.281C192.314 376.724 193.434 377.232 195.113 377.805C195.543 377.961 196.083 378.143 196.734 378.352C198.896 379.055 200.426 379.888 201.324 380.852C202.223 381.802 202.672 383.091 202.672 384.719C202.646 386.698 201.936 388.234 200.543 389.328C199.15 390.409 197.268 390.949 194.898 390.949ZM212.906 390.891C210.823 390.891 209.345 390.331 208.473 389.211C207.613 388.091 207.184 386.145 207.184 383.371V360.754L210.426 360.559V382.082C210.426 382.967 210.432 383.677 210.445 384.211C210.471 384.745 210.523 385.272 210.602 385.793C210.68 386.301 210.784 386.685 210.914 386.945C211.044 387.206 211.233 387.447 211.48 387.668C211.728 387.876 212.021 388.02 212.359 388.098C212.711 388.163 213.141 388.195 213.648 388.195C214.065 388.195 214.885 388.117 216.109 387.961L216.285 390.559C214.944 390.78 213.818 390.891 212.906 390.891ZM217.496 378.82C217.496 372.44 219.273 366.659 222.828 361.477H225.855C222.496 366.711 220.816 372.466 220.816 378.742C220.816 381.685 221.259 384.654 222.145 387.648C223.03 390.643 224.267 393.358 225.855 395.793H222.867C221.188 393.462 219.872 390.839 218.922 387.922C217.971 384.992 217.496 381.958 217.496 378.82Z" fill="black"/>
<path d="M253.688 390.949C251.943 390.949 250.387 390.721 249.02 390.266C247.665 389.81 246.676 389.283 246.051 388.684L247.145 385.812C248.98 387.258 251.168 387.98 253.707 387.98C255.66 387.98 257.21 387.499 258.355 386.535C259.514 385.559 260.094 384.198 260.094 382.453C260.094 381.503 259.944 380.676 259.645 379.973C259.358 379.257 258.967 378.684 258.473 378.254C257.991 377.811 257.366 377.46 256.598 377.199C255.842 376.926 255.061 376.737 254.254 376.633C253.46 376.516 252.535 376.444 251.48 376.418C251.35 376.418 251.155 376.418 250.895 376.418C250.634 376.405 250.439 376.398 250.309 376.398V373.488H251.285C252.197 373.475 252.997 373.43 253.688 373.352C254.391 373.26 255.087 373.104 255.777 372.883C256.48 372.661 257.06 372.368 257.516 372.004C257.971 371.639 258.342 371.151 258.629 370.539C258.915 369.927 259.059 369.204 259.059 368.371C259.059 365.246 257.268 363.684 253.688 363.684C252.398 363.684 251.188 363.872 250.055 364.25C248.922 364.628 247.952 365.135 247.145 365.773L246.051 362.922C247.991 361.451 250.784 360.715 254.43 360.715C255.901 360.715 257.262 360.988 258.512 361.535C259.762 362.069 260.79 362.896 261.598 364.016C262.405 365.122 262.809 366.424 262.809 367.922C262.809 369.745 262.359 371.242 261.461 372.414C260.562 373.586 259.299 374.426 257.672 374.934C259.495 375.324 260.921 376.177 261.949 377.492C262.991 378.807 263.512 380.474 263.512 382.492C263.512 385.057 262.594 387.108 260.758 388.645C258.922 390.181 256.565 390.949 253.688 390.949ZM275.25 390.949C273.505 390.949 271.949 390.721 270.582 390.266C269.228 389.81 268.238 389.283 267.613 388.684L268.707 385.812C270.543 387.258 272.73 387.98 275.27 387.98C277.223 387.98 278.772 387.499 279.918 386.535C281.077 385.559 281.656 384.198 281.656 382.453C281.656 381.503 281.507 380.676 281.207 379.973C280.921 379.257 280.53 378.684 280.035 378.254C279.553 377.811 278.928 377.46 278.16 377.199C277.405 376.926 276.624 376.737 275.816 376.633C275.022 376.516 274.098 376.444 273.043 376.418C272.913 376.418 272.717 376.418 272.457 376.418C272.197 376.405 272.001 376.398 271.871 376.398V373.488H272.848C273.759 373.475 274.56 373.43 275.25 373.352C275.953 373.26 276.65 373.104 277.34 372.883C278.043 372.661 278.622 372.368 279.078 372.004C279.534 371.639 279.905 371.151 280.191 370.539C280.478 369.927 280.621 369.204 280.621 368.371C280.621 365.246 278.831 363.684 275.25 363.684C273.961 363.684 272.75 363.872 271.617 364.25C270.484 364.628 269.514 365.135 268.707 365.773L267.613 362.922C269.553 361.451 272.346 360.715 275.992 360.715C277.464 360.715 278.824 360.988 280.074 361.535C281.324 362.069 282.353 362.896 283.16 364.016C283.967 365.122 284.371 366.424 284.371 367.922C284.371 369.745 283.922 371.242 283.023 372.414C282.125 373.586 280.862 374.426 279.234 374.934C281.057 375.324 282.483 376.177 283.512 377.492C284.553 378.807 285.074 380.474 285.074 382.492C285.074 385.057 284.156 387.108 282.32 388.645C280.484 390.181 278.128 390.949 275.25 390.949ZM306.734 361.281L306.461 364.484H294.527C294.397 368.273 294.299 371.34 294.234 373.684C295.706 372.746 297.301 372.277 299.02 372.277C300.465 372.277 301.754 372.512 302.887 372.98C304.033 373.436 304.964 374.068 305.68 374.875C306.409 375.682 306.962 376.626 307.34 377.707C307.717 378.775 307.906 379.934 307.906 381.184C307.906 384.139 306.956 386.509 305.055 388.293C303.167 390.064 300.595 390.949 297.34 390.949C294.072 390.949 291.454 390.057 289.488 388.273L290.758 385.52C292.685 387.03 294.918 387.785 297.457 387.785C299.592 387.785 301.279 387.18 302.516 385.969C303.753 384.758 304.371 383.176 304.371 381.223C304.371 379.478 303.85 378.065 302.809 376.984C301.767 375.891 300.283 375.344 298.355 375.344C296.428 375.344 294.879 375.988 293.707 377.277L290.992 376.906L291.754 361.281H306.734ZM321.285 388.137C323.434 388.137 325.029 387.447 326.07 386.066C327.125 384.686 327.652 382.714 327.652 380.148C327.652 377.258 327.145 375.083 326.129 373.625C325.126 372.154 323.499 371.418 321.246 371.418C320.243 371.418 319.358 371.633 318.59 372.062C317.822 372.492 317.203 373.091 316.734 373.859C316.266 374.628 315.908 375.513 315.66 376.516C315.426 377.505 315.309 378.592 315.309 379.777C315.309 381.444 315.51 382.889 315.914 384.113C316.331 385.337 316.995 386.314 317.906 387.043C318.818 387.772 319.944 388.137 321.285 388.137ZM327.711 387.395C327.008 388.475 326.07 389.335 324.898 389.973C323.727 390.611 322.418 390.93 320.973 390.93C318.147 390.93 315.934 389.927 314.332 387.922C312.73 385.904 311.93 383.163 311.93 379.699C311.93 376.392 312.743 373.723 314.371 371.691C315.999 369.647 318.18 368.625 320.914 368.625C322.333 368.625 323.668 368.938 324.918 369.562C326.181 370.174 327.125 371.001 327.75 372.043L327.691 370.188V360.754L330.914 360.559V390.5H328.141L327.711 387.395ZM348.941 373.039C347.991 371.893 346.682 371.32 345.016 371.32C343.349 371.32 341.988 371.913 340.934 373.098C339.879 374.27 339.26 375.878 339.078 377.922H350.387C350.387 375.799 349.905 374.172 348.941 373.039ZM345.66 390.949C342.548 390.949 340.094 389.96 338.297 387.98C336.513 386.001 335.621 383.293 335.621 379.855C335.621 376.535 336.487 373.846 338.219 371.789C339.951 369.719 342.229 368.664 345.055 368.625C347.711 368.625 349.814 369.536 351.363 371.359C352.926 373.169 353.707 375.591 353.707 378.625C353.707 378.781 353.701 379.068 353.688 379.484C353.688 379.901 353.688 380.201 353.688 380.383H338.98C339.02 382.818 339.645 384.719 340.855 386.086C342.079 387.44 343.72 388.117 345.777 388.117C348.043 388.117 350.315 387.518 352.594 386.32L353.102 388.957C350.927 390.285 348.447 390.949 345.66 390.949ZM366.559 387.707C367.665 387.707 368.635 387.512 369.469 387.121C370.302 386.73 370.953 386.19 371.422 385.5C371.891 384.81 372.236 384.042 372.457 383.195C372.691 382.349 372.809 381.424 372.809 380.422V378.84C372.809 377.798 372.691 376.841 372.457 375.969C372.223 375.083 371.858 374.296 371.363 373.605C370.882 372.902 370.23 372.355 369.41 371.965C368.603 371.574 367.659 371.379 366.578 371.379C365.68 371.379 364.859 371.548 364.117 371.887C363.388 372.225 362.783 372.674 362.301 373.234C361.832 373.781 361.428 374.426 361.09 375.168C360.764 375.897 360.53 376.639 360.387 377.395C360.243 378.15 360.172 378.911 360.172 379.68C360.172 380.435 360.25 381.184 360.406 381.926C360.562 382.668 360.81 383.391 361.148 384.094C361.487 384.797 361.897 385.415 362.379 385.949C362.861 386.47 363.46 386.893 364.176 387.219C364.905 387.544 365.699 387.707 366.559 387.707ZM361.539 400.305L361.246 397.355H365.23C366.337 397.355 367.301 397.277 368.121 397.121C368.941 396.965 369.625 396.704 370.172 396.34C370.719 395.988 371.161 395.591 371.5 395.148C371.839 394.719 372.092 394.152 372.262 393.449C372.444 392.759 372.561 392.069 372.613 391.379C372.678 390.702 372.711 389.868 372.711 388.879V386.984C371.93 388.104 371.025 388.97 369.996 389.582C368.967 390.181 367.659 390.48 366.07 390.48C364.846 390.48 363.714 390.272 362.672 389.855C361.643 389.426 360.771 388.859 360.055 388.156C359.352 387.453 358.746 386.639 358.238 385.715C357.743 384.79 357.379 383.833 357.145 382.844C356.923 381.854 356.812 380.858 356.812 379.855C356.812 378.293 357.001 376.848 357.379 375.52C357.77 374.191 358.342 373.007 359.098 371.965C359.853 370.923 360.842 370.109 362.066 369.523C363.303 368.924 364.716 368.625 366.305 368.625C367.711 368.625 368.935 368.898 369.977 369.445C371.031 369.979 371.975 370.806 372.809 371.926V369.074H375.992V388.957C375.992 389.868 375.966 390.663 375.914 391.34C375.875 392.03 375.764 392.792 375.582 393.625C375.413 394.458 375.178 395.174 374.879 395.773C374.579 396.372 374.156 396.971 373.609 397.57C373.076 398.182 372.431 398.671 371.676 399.035C370.934 399.413 370.009 399.719 368.902 399.953C367.796 400.188 366.546 400.305 365.152 400.305H361.539Z" fill="black"/>
<path d="M400.898 361.281H404.004V390.5H400.547V364.895C399.232 365.754 397.624 366.49 395.723 367.102V363.84C395.931 363.749 396.354 363.566 396.992 363.293C397.63 363.02 398.105 362.811 398.418 362.668C398.743 362.525 399.147 362.323 399.629 362.062C400.111 361.802 400.534 361.542 400.898 361.281ZM423.906 389.816C422.617 390.572 421.107 390.949 419.375 390.949C417.643 390.949 416.126 390.572 414.824 389.816C413.522 389.048 412.474 387.974 411.68 386.594C410.898 385.214 410.312 383.625 409.922 381.828C409.544 380.031 409.355 378.033 409.355 375.832C409.355 374.022 409.479 372.349 409.727 370.812C409.987 369.276 410.384 367.883 410.918 366.633C411.452 365.383 412.109 364.322 412.891 363.449C413.685 362.577 414.629 361.906 415.723 361.438C416.816 360.956 418.034 360.715 419.375 360.715C421.042 360.715 422.513 361.079 423.789 361.809C425.078 362.538 426.12 363.579 426.914 364.934C427.721 366.275 428.327 367.863 428.73 369.699C429.134 371.522 429.336 373.566 429.336 375.832C429.336 378.033 429.147 380.031 428.77 381.828C428.392 383.625 427.812 385.214 427.031 386.594C426.25 387.974 425.208 389.048 423.906 389.816ZM422.793 365.266C421.842 364.211 420.703 363.684 419.375 363.684C418.047 363.684 416.908 364.211 415.957 365.266C415.007 366.307 414.29 367.727 413.809 369.523C413.34 371.307 413.105 373.371 413.105 375.715C413.105 378.098 413.34 380.207 413.809 382.043C414.29 383.866 415.007 385.311 415.957 386.379C416.908 387.447 418.047 387.98 419.375 387.98C420.703 387.98 421.842 387.447 422.793 386.379C423.743 385.311 424.453 383.866 424.922 382.043C425.404 380.207 425.645 378.098 425.645 375.715C425.645 373.371 425.404 371.307 424.922 369.523C424.453 367.727 423.743 366.307 422.793 365.266ZM448.164 389.816C446.875 390.572 445.365 390.949 443.633 390.949C441.901 390.949 440.384 390.572 439.082 389.816C437.78 389.048 436.732 387.974 435.938 386.594C435.156 385.214 434.57 383.625 434.18 381.828C433.802 380.031 433.613 378.033 433.613 375.832C433.613 374.022 433.737 372.349 433.984 370.812C434.245 369.276 434.642 367.883 435.176 366.633C435.71 365.383 436.367 364.322 437.148 363.449C437.943 362.577 438.887 361.906 439.98 361.438C441.074 360.956 442.292 360.715 443.633 360.715C445.299 360.715 446.771 361.079 448.047 361.809C449.336 362.538 450.378 363.579 451.172 364.934C451.979 366.275 452.585 367.863 452.988 369.699C453.392 371.522 453.594 373.566 453.594 375.832C453.594 378.033 453.405 380.031 453.027 381.828C452.65 383.625 452.07 385.214 451.289 386.594C450.508 387.974 449.466 389.048 448.164 389.816ZM447.051 365.266C446.1 364.211 444.961 363.684 443.633 363.684C442.305 363.684 441.165 364.211 440.215 365.266C439.264 366.307 438.548 367.727 438.066 369.523C437.598 371.307 437.363 373.371 437.363 375.715C437.363 378.098 437.598 380.207 438.066 382.043C438.548 383.866 439.264 385.311 440.215 386.379C441.165 387.447 442.305 387.98 443.633 387.98C444.961 387.98 446.1 387.447 447.051 386.379C448.001 385.311 448.711 383.866 449.18 382.043C449.661 380.207 449.902 378.098 449.902 375.715C449.902 373.371 449.661 371.307 449.18 369.523C448.711 367.727 448.001 366.307 447.051 365.266ZM483.691 375.773C485.892 375.773 487.591 376.47 488.789 377.863C489.987 379.243 490.586 381.053 490.586 383.293C490.586 385.48 489.974 387.277 488.75 388.684C487.539 390.09 485.853 390.793 483.691 390.793C481.504 390.793 479.811 390.096 478.613 388.703C477.415 387.297 476.816 385.493 476.816 383.293C476.816 381.092 477.422 379.289 478.633 377.883C479.844 376.477 481.53 375.773 483.691 375.773ZM486.934 379.523C486.165 378.508 485.085 378 483.691 378C482.298 378 481.211 378.514 480.43 379.543C479.661 380.572 479.277 381.822 479.277 383.293C479.277 384.79 479.661 386.047 480.43 387.062C481.211 388.078 482.298 388.586 483.691 388.586C485.085 388.586 486.165 388.072 486.934 387.043C487.715 386.014 488.105 384.764 488.105 383.293C488.105 381.796 487.715 380.539 486.934 379.523ZM463.574 390.578L479.102 361.945H482.266L466.211 390.578H463.574ZM463.945 361.418C465.833 361.418 467.344 362.128 468.477 363.547C469.622 364.953 470.195 366.75 470.195 368.938C470.195 371.073 469.622 372.831 468.477 374.211C467.331 375.591 465.82 376.281 463.945 376.281C462.057 376.281 460.553 375.598 459.434 374.23C458.314 372.85 457.754 371.086 457.754 368.938C457.754 366.763 458.314 364.966 459.434 363.547C460.566 362.128 462.07 361.418 463.945 361.418ZM463.945 363.586C462.773 363.586 461.862 364.107 461.211 365.148C460.56 366.19 460.234 367.453 460.234 368.938C460.234 370.435 460.553 371.659 461.191 372.609C461.842 373.547 462.76 374.016 463.945 374.016C465.13 374.016 466.048 373.534 466.699 372.57C467.35 371.594 467.676 370.383 467.676 368.938C467.676 367.44 467.344 366.177 466.68 365.148C466.016 364.107 465.104 363.586 463.945 363.586Z" fill="black"/>
<path d="M514.898 361.281H518.004V390.5H514.547V364.895C513.232 365.754 511.624 366.49 509.723 367.102V363.84C509.931 363.749 510.354 363.566 510.992 363.293C511.63 363.02 512.105 362.811 512.418 362.668C512.743 362.525 513.147 362.323 513.629 362.062C514.111 361.802 514.534 361.542 514.898 361.281ZM537.906 389.816C536.617 390.572 535.107 390.949 533.375 390.949C531.643 390.949 530.126 390.572 528.824 389.816C527.522 389.048 526.474 387.974 525.68 386.594C524.898 385.214 524.312 383.625 523.922 381.828C523.544 380.031 523.355 378.033 523.355 375.832C523.355 374.022 523.479 372.349 523.727 370.812C523.987 369.276 524.384 367.883 524.918 366.633C525.452 365.383 526.109 364.322 526.891 363.449C527.685 362.577 528.629 361.906 529.723 361.438C530.816 360.956 532.034 360.715 533.375 360.715C535.042 360.715 536.513 361.079 537.789 361.809C539.078 362.538 540.12 363.579 540.914 364.934C541.721 366.275 542.327 367.863 542.73 369.699C543.134 371.522 543.336 373.566 543.336 375.832C543.336 378.033 543.147 380.031 542.77 381.828C542.392 383.625 541.812 385.214 541.031 386.594C540.25 387.974 539.208 389.048 537.906 389.816ZM536.793 365.266C535.842 364.211 534.703 363.684 533.375 363.684C532.047 363.684 530.908 364.211 529.957 365.266C529.007 366.307 528.29 367.727 527.809 369.523C527.34 371.307 527.105 373.371 527.105 375.715C527.105 378.098 527.34 380.207 527.809 382.043C528.29 383.866 529.007 385.311 529.957 386.379C530.908 387.447 532.047 387.98 533.375 387.98C534.703 387.98 535.842 387.447 536.793 386.379C537.743 385.311 538.453 383.866 538.922 382.043C539.404 380.207 539.645 378.098 539.645 375.715C539.645 373.371 539.404 371.307 538.922 369.523C538.453 367.727 537.743 366.307 536.793 365.266ZM562.164 389.816C560.875 390.572 559.365 390.949 557.633 390.949C555.901 390.949 554.384 390.572 553.082 389.816C551.78 389.048 550.732 387.974 549.938 386.594C549.156 385.214 548.57 383.625 548.18 381.828C547.802 380.031 547.613 378.033 547.613 375.832C547.613 374.022 547.737 372.349 547.984 370.812C548.245 369.276 548.642 367.883 549.176 366.633C549.71 365.383 550.367 364.322 551.148 363.449C551.943 362.577 552.887 361.906 553.98 361.438C555.074 360.956 556.292 360.715 557.633 360.715C559.299 360.715 560.771 361.079 562.047 361.809C563.336 362.538 564.378 363.579 565.172 364.934C565.979 366.275 566.585 367.863 566.988 369.699C567.392 371.522 567.594 373.566 567.594 375.832C567.594 378.033 567.405 380.031 567.027 381.828C566.65 383.625 566.07 385.214 565.289 386.594C564.508 387.974 563.466 389.048 562.164 389.816ZM561.051 365.266C560.1 364.211 558.961 363.684 557.633 363.684C556.305 363.684 555.165 364.211 554.215 365.266C553.264 366.307 552.548 367.727 552.066 369.523C551.598 371.307 551.363 373.371 551.363 375.715C551.363 378.098 551.598 380.207 552.066 382.043C552.548 383.866 553.264 385.311 554.215 386.379C555.165 387.447 556.305 387.98 557.633 387.98C558.961 387.98 560.1 387.447 561.051 386.379C562.001 385.311 562.711 383.866 563.18 382.043C563.661 380.207 563.902 378.098 563.902 375.715C563.902 373.371 563.661 371.307 563.18 369.523C562.711 367.727 562.001 366.307 561.051 365.266ZM597.691 375.773C599.892 375.773 601.591 376.47 602.789 377.863C603.987 379.243 604.586 381.053 604.586 383.293C604.586 385.48 603.974 387.277 602.75 388.684C601.539 390.09 599.853 390.793 597.691 390.793C595.504 390.793 593.811 390.096 592.613 388.703C591.415 387.297 590.816 385.493 590.816 383.293C590.816 381.092 591.422 379.289 592.633 377.883C593.844 376.477 595.53 375.773 597.691 375.773ZM600.934 379.523C600.165 378.508 599.085 378 597.691 378C596.298 378 595.211 378.514 594.43 379.543C593.661 380.572 593.277 381.822 593.277 383.293C593.277 384.79 593.661 386.047 594.43 387.062C595.211 388.078 596.298 388.586 597.691 388.586C599.085 388.586 600.165 388.072 600.934 387.043C601.715 386.014 602.105 384.764 602.105 383.293C602.105 381.796 601.715 380.539 600.934 379.523ZM577.574 390.578L593.102 361.945H596.266L580.211 390.578H577.574ZM577.945 361.418C579.833 361.418 581.344 362.128 582.477 363.547C583.622 364.953 584.195 366.75 584.195 368.938C584.195 371.073 583.622 372.831 582.477 374.211C581.331 375.591 579.82 376.281 577.945 376.281C576.057 376.281 574.553 375.598 573.434 374.23C572.314 372.85 571.754 371.086 571.754 368.938C571.754 366.763 572.314 364.966 573.434 363.547C574.566 362.128 576.07 361.418 577.945 361.418ZM577.945 363.586C576.773 363.586 575.862 364.107 575.211 365.148C574.56 366.19 574.234 367.453 574.234 368.938C574.234 370.435 574.553 371.659 575.191 372.609C575.842 373.547 576.76 374.016 577.945 374.016C579.13 374.016 580.048 373.534 580.699 372.57C581.35 371.594 581.676 370.383 581.676 368.938C581.676 367.44 581.344 366.177 580.68 365.148C580.016 364.107 579.104 363.586 577.945 363.586Z" fill="black"/>
<path d="M626.789 394.758H623.977L637.18 361.867H640.031L626.789 394.758Z" fill="black"/>
<path d="M668 385.949C668.742 386.548 669.634 386.848 670.676 386.848C671.717 386.848 672.603 386.548 673.332 385.949C674.074 385.35 674.634 384.523 675.012 383.469C675.402 382.401 675.682 381.268 675.852 380.07C676.021 378.859 676.105 377.518 676.105 376.047C676.105 368.99 674.296 365.461 670.676 365.461C667.082 365.461 665.259 368.964 665.207 375.969C665.207 377.453 665.292 378.801 665.461 380.012C665.63 381.223 665.91 382.368 666.301 383.449C666.691 384.517 667.258 385.35 668 385.949ZM674.836 390.129C673.612 390.65 672.225 390.91 670.676 390.91C669.126 390.91 667.733 390.65 666.496 390.129C665.259 389.595 664.237 388.879 663.43 387.98C662.622 387.069 661.945 385.982 661.398 384.719C660.865 383.456 660.48 382.121 660.246 380.715C660.025 379.309 659.914 377.805 659.914 376.203C659.914 374.576 660.031 373.052 660.266 371.633C660.5 370.201 660.891 368.853 661.438 367.59C661.984 366.314 662.661 365.227 663.469 364.328C664.289 363.43 665.311 362.72 666.535 362.199C667.759 361.665 669.139 361.398 670.676 361.398C672.212 361.398 673.592 361.665 674.816 362.199C676.04 362.72 677.056 363.436 677.863 364.348C678.671 365.246 679.341 366.333 679.875 367.609C680.422 368.872 680.812 370.214 681.047 371.633C681.281 373.052 681.398 374.576 681.398 376.203C681.398 377.805 681.281 379.309 681.047 380.715C680.826 382.121 680.448 383.462 679.914 384.738C679.38 386.001 678.71 387.082 677.902 387.98C677.095 388.879 676.073 389.595 674.836 390.129ZM688.098 390.852C687.251 390.852 686.535 390.559 685.949 389.973C685.363 389.387 685.07 388.69 685.07 387.883C685.07 387.062 685.357 386.353 685.93 385.754C686.516 385.155 687.238 384.855 688.098 384.855C688.931 384.855 689.634 385.155 690.207 385.754C690.78 386.353 691.066 387.062 691.066 387.883C691.066 388.69 690.78 389.387 690.207 389.973C689.634 390.559 688.931 390.852 688.098 390.852ZM703.156 390.91C701.867 390.91 700.539 390.702 699.172 390.285C697.805 389.855 696.763 389.452 696.047 389.074C695.331 388.684 694.855 388.384 694.621 388.176L696.184 384.504C696.431 384.699 696.789 384.947 697.258 385.246C697.74 385.533 698.508 385.865 699.562 386.242C700.63 386.62 701.652 386.809 702.629 386.809C704.452 386.809 705.832 386.301 706.77 385.285C707.707 384.27 708.176 382.941 708.176 381.301C708.176 379.751 707.746 378.508 706.887 377.57C706.04 376.633 704.94 376.164 703.586 376.164C701.971 376.164 700.526 376.867 699.25 378.273L695.832 377.609L696.574 362.023H712.121L711.828 366.047H701.105C701.105 366.281 701.06 367.46 700.969 369.582C700.891 371.691 700.845 372.87 700.832 373.117C701.978 372.505 703.182 372.199 704.445 372.199C707.076 372.199 709.191 373.046 710.793 374.738C712.408 376.431 713.215 378.638 713.215 381.359C713.215 384.25 712.329 386.568 710.559 388.312C708.801 390.044 706.333 390.91 703.156 390.91Z" fill="black"/>
<path d="M740.883 378.82C740.883 381.958 740.408 384.986 739.457 387.902C738.507 390.819 737.185 393.449 735.492 395.793H732.523C734.112 393.358 735.349 390.643 736.234 387.648C737.12 384.654 737.562 381.685 737.562 378.742C737.562 372.492 735.876 366.737 732.504 361.477H735.531C739.099 366.737 740.883 372.518 740.883 378.82Z" fill="black"/>
<rect width="100" height="100" transform="translate(32 425)" fill="#ECCEAC"/>
<path d="M181.227 490.5V477.551C181.227 475.402 180.882 473.84 180.191 472.863C179.514 471.887 178.323 471.398 176.617 471.398C174.977 471.398 173.59 471.809 172.457 472.629C171.337 473.449 170.608 474.51 170.27 475.812C170.152 476.789 170.094 477.876 170.094 479.074V490.5H166.832V460.754L170.094 460.559V469.27C170.094 470.012 170.068 470.93 170.016 472.023C171.852 469.758 174.286 468.625 177.32 468.625C182.099 468.625 184.488 471.431 184.488 477.043V490.5H181.227ZM194.898 490.949C193.44 490.949 192.092 490.793 190.855 490.48C189.632 490.168 188.635 489.764 187.867 489.27L188.277 486.516C190.452 487.674 192.587 488.254 194.684 488.254C197.861 488.254 199.495 487.134 199.586 484.895C199.586 483.944 199.247 483.195 198.57 482.648C197.893 482.102 196.565 481.49 194.586 480.812L192.965 480.246C191.09 479.621 189.749 478.846 188.941 477.922C188.147 476.997 187.743 475.845 187.73 474.465C187.73 472.785 188.401 471.392 189.742 470.285C191.096 469.178 192.945 468.625 195.289 468.625C197.711 468.625 199.918 469.094 201.91 470.031L200.953 472.531C198.935 471.698 197.047 471.281 195.289 471.281C193.922 471.281 192.848 471.555 192.066 472.102C191.298 472.635 190.914 473.391 190.914 474.367C190.914 475.201 191.194 475.839 191.754 476.281C192.314 476.724 193.434 477.232 195.113 477.805C195.543 477.961 196.083 478.143 196.734 478.352C198.896 479.055 200.426 479.888 201.324 480.852C202.223 481.802 202.672 483.091 202.672 484.719C202.646 486.698 201.936 488.234 200.543 489.328C199.15 490.409 197.268 490.949 194.898 490.949ZM212.906 490.891C210.823 490.891 209.345 490.331 208.473 489.211C207.613 488.091 207.184 486.145 207.184 483.371V460.754L210.426 460.559V482.082C210.426 482.967 210.432 483.677 210.445 484.211C210.471 484.745 210.523 485.272 210.602 485.793C210.68 486.301 210.784 486.685 210.914 486.945C211.044 487.206 211.233 487.447 211.48 487.668C211.728 487.876 212.021 488.02 212.359 488.098C212.711 488.163 213.141 488.195 213.648 488.195C214.065 488.195 214.885 488.117 216.109 487.961L216.285 490.559C214.944 490.78 213.818 490.891 212.906 490.891ZM217.496 478.82C217.496 472.44 219.273 466.659 222.828 461.477H225.855C222.496 466.711 220.816 472.466 220.816 478.742C220.816 481.685 221.259 484.654 222.145 487.648C223.03 490.643 224.267 493.358 225.855 495.793H222.867C221.188 493.462 219.872 490.839 218.922 487.922C217.971 484.992 217.496 481.958 217.496 478.82Z" fill="black"/>
<path d="M253.688 490.949C251.943 490.949 250.387 490.721 249.02 490.266C247.665 489.81 246.676 489.283 246.051 488.684L247.145 485.812C248.98 487.258 251.168 487.98 253.707 487.98C255.66 487.98 257.21 487.499 258.355 486.535C259.514 485.559 260.094 484.198 260.094 482.453C260.094 481.503 259.944 480.676 259.645 479.973C259.358 479.257 258.967 478.684 258.473 478.254C257.991 477.811 257.366 477.46 256.598 477.199C255.842 476.926 255.061 476.737 254.254 476.633C253.46 476.516 252.535 476.444 251.48 476.418C251.35 476.418 251.155 476.418 250.895 476.418C250.634 476.405 250.439 476.398 250.309 476.398V473.488H251.285C252.197 473.475 252.997 473.43 253.688 473.352C254.391 473.26 255.087 473.104 255.777 472.883C256.48 472.661 257.06 472.368 257.516 472.004C257.971 471.639 258.342 471.151 258.629 470.539C258.915 469.927 259.059 469.204 259.059 468.371C259.059 465.246 257.268 463.684 253.688 463.684C252.398 463.684 251.188 463.872 250.055 464.25C248.922 464.628 247.952 465.135 247.145 465.773L246.051 462.922C247.991 461.451 250.784 460.715 254.43 460.715C255.901 460.715 257.262 460.988 258.512 461.535C259.762 462.069 260.79 462.896 261.598 464.016C262.405 465.122 262.809 466.424 262.809 467.922C262.809 469.745 262.359 471.242 261.461 472.414C260.562 473.586 259.299 474.426 257.672 474.934C259.495 475.324 260.921 476.177 261.949 477.492C262.991 478.807 263.512 480.474 263.512 482.492C263.512 485.057 262.594 487.108 260.758 488.645C258.922 490.181 256.565 490.949 253.688 490.949ZM275.25 490.949C273.505 490.949 271.949 490.721 270.582 490.266C269.228 489.81 268.238 489.283 267.613 488.684L268.707 485.812C270.543 487.258 272.73 487.98 275.27 487.98C277.223 487.98 278.772 487.499 279.918 486.535C281.077 485.559 281.656 484.198 281.656 482.453C281.656 481.503 281.507 480.676 281.207 479.973C280.921 479.257 280.53 478.684 280.035 478.254C279.553 477.811 278.928 477.46 278.16 477.199C277.405 476.926 276.624 476.737 275.816 476.633C275.022 476.516 274.098 476.444 273.043 476.418C272.913 476.418 272.717 476.418 272.457 476.418C272.197 476.405 272.001 476.398 271.871 476.398V473.488H272.848C273.759 473.475 274.56 473.43 275.25 473.352C275.953 473.26 276.65 473.104 277.34 472.883C278.043 472.661 278.622 472.368 279.078 472.004C279.534 471.639 279.905 471.151 280.191 470.539C280.478 469.927 280.621 469.204 280.621 468.371C280.621 465.246 278.831 463.684 275.25 463.684C273.961 463.684 272.75 463.872 271.617 464.25C270.484 464.628 269.514 465.135 268.707 465.773L267.613 462.922C269.553 461.451 272.346 460.715 275.992 460.715C277.464 460.715 278.824 460.988 280.074 461.535C281.324 462.069 282.353 462.896 283.16 464.016C283.967 465.122 284.371 466.424 284.371 467.922C284.371 469.745 283.922 471.242 283.023 472.414C282.125 473.586 280.862 474.426 279.234 474.934C281.057 475.324 282.483 476.177 283.512 477.492C284.553 478.807 285.074 480.474 285.074 482.492C285.074 485.057 284.156 487.108 282.32 488.645C280.484 490.181 278.128 490.949 275.25 490.949ZM306.734 461.281L306.461 464.484H294.527C294.397 468.273 294.299 471.34 294.234 473.684C295.706 472.746 297.301 472.277 299.02 472.277C300.465 472.277 301.754 472.512 302.887 472.98C304.033 473.436 304.964 474.068 305.68 474.875C306.409 475.682 306.962 476.626 307.34 477.707C307.717 478.775 307.906 479.934 307.906 481.184C307.906 484.139 306.956 486.509 305.055 488.293C303.167 490.064 300.595 490.949 297.34 490.949C294.072 490.949 291.454 490.057 289.488 488.273L290.758 485.52C292.685 487.03 294.918 487.785 297.457 487.785C299.592 487.785 301.279 487.18 302.516 485.969C303.753 484.758 304.371 483.176 304.371 481.223C304.371 479.478 303.85 478.065 302.809 476.984C301.767 475.891 300.283 475.344 298.355 475.344C296.428 475.344 294.879 475.988 293.707 477.277L290.992 476.906L291.754 461.281H306.734ZM321.285 488.137C323.434 488.137 325.029 487.447 326.07 486.066C327.125 484.686 327.652 482.714 327.652 480.148C327.652 477.258 327.145 475.083 326.129 473.625C325.126 472.154 323.499 471.418 321.246 471.418C320.243 471.418 319.358 471.633 318.59 472.062C317.822 472.492 317.203 473.091 316.734 473.859C316.266 474.628 315.908 475.513 315.66 476.516C315.426 477.505 315.309 478.592 315.309 479.777C315.309 481.444 315.51 482.889 315.914 484.113C316.331 485.337 316.995 486.314 317.906 487.043C318.818 487.772 319.944 488.137 321.285 488.137ZM327.711 487.395C327.008 488.475 326.07 489.335 324.898 489.973C323.727 490.611 322.418 490.93 320.973 490.93C318.147 490.93 315.934 489.927 314.332 487.922C312.73 485.904 311.93 483.163 311.93 479.699C311.93 476.392 312.743 473.723 314.371 471.691C315.999 469.647 318.18 468.625 320.914 468.625C322.333 468.625 323.668 468.938 324.918 469.562C326.181 470.174 327.125 471.001 327.75 472.043L327.691 470.188V460.754L330.914 460.559V490.5H328.141L327.711 487.395ZM348.941 473.039C347.991 471.893 346.682 471.32 345.016 471.32C343.349 471.32 341.988 471.913 340.934 473.098C339.879 474.27 339.26 475.878 339.078 477.922H350.387C350.387 475.799 349.905 474.172 348.941 473.039ZM345.66 490.949C342.548 490.949 340.094 489.96 338.297 487.98C336.513 486.001 335.621 483.293 335.621 479.855C335.621 476.535 336.487 473.846 338.219 471.789C339.951 469.719 342.229 468.664 345.055 468.625C347.711 468.625 349.814 469.536 351.363 471.359C352.926 473.169 353.707 475.591 353.707 478.625C353.707 478.781 353.701 479.068 353.688 479.484C353.688 479.901 353.688 480.201 353.688 480.383H338.98C339.02 482.818 339.645 484.719 340.855 486.086C342.079 487.44 343.72 488.117 345.777 488.117C348.043 488.117 350.315 487.518 352.594 486.32L353.102 488.957C350.927 490.285 348.447 490.949 345.66 490.949ZM366.559 487.707C367.665 487.707 368.635 487.512 369.469 487.121C370.302 486.73 370.953 486.19 371.422 485.5C371.891 484.81 372.236 484.042 372.457 483.195C372.691 482.349 372.809 481.424 372.809 480.422V478.84C372.809 477.798 372.691 476.841 372.457 475.969C372.223 475.083 371.858 474.296 371.363 473.605C370.882 472.902 370.23 472.355 369.41 471.965C368.603 471.574 367.659 471.379 366.578 471.379C365.68 471.379 364.859 471.548 364.117 471.887C363.388 472.225 362.783 472.674 362.301 473.234C361.832 473.781 361.428 474.426 361.09 475.168C360.764 475.897 360.53 476.639 360.387 477.395C360.243 478.15 360.172 478.911 360.172 479.68C360.172 480.435 360.25 481.184 360.406 481.926C360.562 482.668 360.81 483.391 361.148 484.094C361.487 484.797 361.897 485.415 362.379 485.949C362.861 486.47 363.46 486.893 364.176 487.219C364.905 487.544 365.699 487.707 366.559 487.707ZM361.539 500.305L361.246 497.355H365.23C366.337 497.355 367.301 497.277 368.121 497.121C368.941 496.965 369.625 496.704 370.172 496.34C370.719 495.988 371.161 495.591 371.5 495.148C371.839 494.719 372.092 494.152 372.262 493.449C372.444 492.759 372.561 492.069 372.613 491.379C372.678 490.702 372.711 489.868 372.711 488.879V486.984C371.93 488.104 371.025 488.97 369.996 489.582C368.967 490.181 367.659 490.48 366.07 490.48C364.846 490.48 363.714 490.272 362.672 489.855C361.643 489.426 360.771 488.859 360.055 488.156C359.352 487.453 358.746 486.639 358.238 485.715C357.743 484.79 357.379 483.833 357.145 482.844C356.923 481.854 356.812 480.858 356.812 479.855C356.812 478.293 357.001 476.848 357.379 475.52C357.77 474.191 358.342 473.007 359.098 471.965C359.853 470.923 360.842 470.109 362.066 469.523C363.303 468.924 364.716 468.625 366.305 468.625C367.711 468.625 368.935 468.898 369.977 469.445C371.031 469.979 371.975 470.806 372.809 471.926V469.074H375.992V488.957C375.992 489.868 375.966 490.663 375.914 491.34C375.875 492.03 375.764 492.792 375.582 493.625C375.413 494.458 375.178 495.174 374.879 495.773C374.579 496.372 374.156 496.971 373.609 497.57C373.076 498.182 372.431 498.671 371.676 499.035C370.934 499.413 370.009 499.719 368.902 499.953C367.796 500.188 366.546 500.305 365.152 500.305H361.539Z" fill="black"/>
<path d="M400.898 461.281H404.004V490.5H400.547V464.895C399.232 465.754 397.624 466.49 395.723 467.102V463.84C395.931 463.749 396.354 463.566 396.992 463.293C397.63 463.02 398.105 462.811 398.418 462.668C398.743 462.525 399.147 462.323 399.629 462.062C400.111 461.802 400.534 461.542 400.898 461.281ZM423.906 489.816C422.617 490.572 421.107 490.949 419.375 490.949C417.643 490.949 416.126 490.572 414.824 489.816C413.522 489.048 412.474 487.974 411.68 486.594C410.898 485.214 410.312 483.625 409.922 481.828C409.544 480.031 409.355 478.033 409.355 475.832C409.355 474.022 409.479 472.349 409.727 470.812C409.987 469.276 410.384 467.883 410.918 466.633C411.452 465.383 412.109 464.322 412.891 463.449C413.685 462.577 414.629 461.906 415.723 461.438C416.816 460.956 418.034 460.715 419.375 460.715C421.042 460.715 422.513 461.079 423.789 461.809C425.078 462.538 426.12 463.579 426.914 464.934C427.721 466.275 428.327 467.863 428.73 469.699C429.134 471.522 429.336 473.566 429.336 475.832C429.336 478.033 429.147 480.031 428.77 481.828C428.392 483.625 427.812 485.214 427.031 486.594C426.25 487.974 425.208 489.048 423.906 489.816ZM422.793 465.266C421.842 464.211 420.703 463.684 419.375 463.684C418.047 463.684 416.908 464.211 415.957 465.266C415.007 466.307 414.29 467.727 413.809 469.523C413.34 471.307 413.105 473.371 413.105 475.715C413.105 478.098 413.34 480.207 413.809 482.043C414.29 483.866 415.007 485.311 415.957 486.379C416.908 487.447 418.047 487.98 419.375 487.98C420.703 487.98 421.842 487.447 422.793 486.379C423.743 485.311 424.453 483.866 424.922 482.043C425.404 480.207 425.645 478.098 425.645 475.715C425.645 473.371 425.404 471.307 424.922 469.523C424.453 467.727 423.743 466.307 422.793 465.266ZM448.164 489.816C446.875 490.572 445.365 490.949 443.633 490.949C441.901 490.949 440.384 490.572 439.082 489.816C437.78 489.048 436.732 487.974 435.938 486.594C435.156 485.214 434.57 483.625 434.18 481.828C433.802 480.031 433.613 478.033 433.613 475.832C433.613 474.022 433.737 472.349 433.984 470.812C434.245 469.276 434.642 467.883 435.176 466.633C435.71 465.383 436.367 464.322 437.148 463.449C437.943 462.577 438.887 461.906 439.98 461.438C441.074 460.956 442.292 460.715 443.633 460.715C445.299 460.715 446.771 461.079 448.047 461.809C449.336 462.538 450.378 463.579 451.172 464.934C451.979 466.275 452.585 467.863 452.988 469.699C453.392 471.522 453.594 473.566 453.594 475.832C453.594 478.033 453.405 480.031 453.027 481.828C452.65 483.625 452.07 485.214 451.289 486.594C450.508 487.974 449.466 489.048 448.164 489.816ZM447.051 465.266C446.1 464.211 444.961 463.684 443.633 463.684C442.305 463.684 441.165 464.211 440.215 465.266C439.264 466.307 438.548 467.727 438.066 469.523C437.598 471.307 437.363 473.371 437.363 475.715C437.363 478.098 437.598 480.207 438.066 482.043C438.548 483.866 439.264 485.311 440.215 486.379C441.165 487.447 442.305 487.98 443.633 487.98C444.961 487.98 446.1 487.447 447.051 486.379C448.001 485.311 448.711 483.866 449.18 482.043C449.661 480.207 449.902 478.098 449.902 475.715C449.902 473.371 449.661 471.307 449.18 469.523C448.711 467.727 448.001 466.307 447.051 465.266ZM483.691 475.773C485.892 475.773 487.591 476.47 488.789 477.863C489.987 479.243 490.586 481.053 490.586 483.293C490.586 485.48 489.974 487.277 488.75 488.684C487.539 490.09 485.853 490.793 483.691 490.793C481.504 490.793 479.811 490.096 478.613 488.703C477.415 487.297 476.816 485.493 476.816 483.293C476.816 481.092 477.422 479.289 478.633 477.883C479.844 476.477 481.53 475.773 483.691 475.773ZM486.934 479.523C486.165 478.508 485.085 478 483.691 478C482.298 478 481.211 478.514 480.43 479.543C479.661 480.572 479.277 481.822 479.277 483.293C479.277 484.79 479.661 486.047 480.43 487.062C481.211 488.078 482.298 488.586 483.691 488.586C485.085 488.586 486.165 488.072 486.934 487.043C487.715 486.014 488.105 484.764 488.105 483.293C488.105 481.796 487.715 480.539 486.934 479.523ZM463.574 490.578L479.102 461.945H482.266L466.211 490.578H463.574ZM463.945 461.418C465.833 461.418 467.344 462.128 468.477 463.547C469.622 464.953 470.195 466.75 470.195 468.938C470.195 471.073 469.622 472.831 468.477 474.211C467.331 475.591 465.82 476.281 463.945 476.281C462.057 476.281 460.553 475.598 459.434 474.23C458.314 472.85 457.754 471.086 457.754 468.938C457.754 466.763 458.314 464.966 459.434 463.547C460.566 462.128 462.07 461.418 463.945 461.418ZM463.945 463.586C462.773 463.586 461.862 464.107 461.211 465.148C460.56 466.19 460.234 467.453 460.234 468.938C460.234 470.435 460.553 471.659 461.191 472.609C461.842 473.547 462.76 474.016 463.945 474.016C465.13 474.016 466.048 473.534 466.699 472.57C467.35 471.594 467.676 470.383 467.676 468.938C467.676 467.44 467.344 466.177 466.68 465.148C466.016 464.107 465.104 463.586 463.945 463.586Z" fill="black"/>
<path d="M514.898 461.281H518.004V490.5H514.547V464.895C513.232 465.754 511.624 466.49 509.723 467.102V463.84C509.931 463.749 510.354 463.566 510.992 463.293C511.63 463.02 512.105 462.811 512.418 462.668C512.743 462.525 513.147 462.323 513.629 462.062C514.111 461.802 514.534 461.542 514.898 461.281ZM537.906 489.816C536.617 490.572 535.107 490.949 533.375 490.949C531.643 490.949 530.126 490.572 528.824 489.816C527.522 489.048 526.474 487.974 525.68 486.594C524.898 485.214 524.312 483.625 523.922 481.828C523.544 480.031 523.355 478.033 523.355 475.832C523.355 474.022 523.479 472.349 523.727 470.812C523.987 469.276 524.384 467.883 524.918 466.633C525.452 465.383 526.109 464.322 526.891 463.449C527.685 462.577 528.629 461.906 529.723 461.438C530.816 460.956 532.034 460.715 533.375 460.715C535.042 460.715 536.513 461.079 537.789 461.809C539.078 462.538 540.12 463.579 540.914 464.934C541.721 466.275 542.327 467.863 542.73 469.699C543.134 471.522 543.336 473.566 543.336 475.832C543.336 478.033 543.147 480.031 542.77 481.828C542.392 483.625 541.812 485.214 541.031 486.594C540.25 487.974 539.208 489.048 537.906 489.816ZM536.793 465.266C535.842 464.211 534.703 463.684 533.375 463.684C532.047 463.684 530.908 464.211 529.957 465.266C529.007 466.307 528.29 467.727 527.809 469.523C527.34 471.307 527.105 473.371 527.105 475.715C527.105 478.098 527.34 480.207 527.809 482.043C528.29 483.866 529.007 485.311 529.957 486.379C530.908 487.447 532.047 487.98 533.375 487.98C534.703 487.98 535.842 487.447 536.793 486.379C537.743 485.311 538.453 483.866 538.922 482.043C539.404 480.207 539.645 478.098 539.645 475.715C539.645 473.371 539.404 471.307 538.922 469.523C538.453 467.727 537.743 466.307 536.793 465.266ZM562.164 489.816C560.875 490.572 559.365 490.949 557.633 490.949C555.901 490.949 554.384 490.572 553.082 489.816C551.78 489.048 550.732 487.974 549.938 486.594C549.156 485.214 548.57 483.625 548.18 481.828C547.802 480.031 547.613 478.033 547.613 475.832C547.613 474.022 547.737 472.349 547.984 470.812C548.245 469.276 548.642 467.883 549.176 466.633C549.71 465.383 550.367 464.322 551.148 463.449C551.943 462.577 552.887 461.906 553.98 461.438C555.074 460.956 556.292 460.715 557.633 460.715C559.299 460.715 560.771 461.079 562.047 461.809C563.336 462.538 564.378 463.579 565.172 464.934C565.979 466.275 566.585 467.863 566.988 469.699C567.392 471.522 567.594 473.566 567.594 475.832C567.594 478.033 567.405 480.031 567.027 481.828C566.65 483.625 566.07 485.214 565.289 486.594C564.508 487.974 563.466 489.048 562.164 489.816ZM561.051 465.266C560.1 464.211 558.961 463.684 557.633 463.684C556.305 463.684 555.165 464.211 554.215 465.266C553.264 466.307 552.548 467.727 552.066 469.523C551.598 471.307 551.363 473.371 551.363 475.715C551.363 478.098 551.598 480.207 552.066 482.043C552.548 483.866 553.264 485.311 554.215 486.379C555.165 487.447 556.305 487.98 557.633 487.98C558.961 487.98 560.1 487.447 561.051 486.379C562.001 485.311 562.711 483.866 563.18 482.043C563.661 480.207 563.902 478.098 563.902 475.715C563.902 473.371 563.661 471.307 563.18 469.523C562.711 467.727 562.001 466.307 561.051 465.266ZM597.691 475.773C599.892 475.773 601.591 476.47 602.789 477.863C603.987 479.243 604.586 481.053 604.586 483.293C604.586 485.48 603.974 487.277 602.75 488.684C601.539 490.09 599.853 490.793 597.691 490.793C595.504 490.793 593.811 490.096 592.613 488.703C591.415 487.297 590.816 485.493 590.816 483.293C590.816 481.092 591.422 479.289 592.633 477.883C593.844 476.477 595.53 475.773 597.691 475.773ZM600.934 479.523C600.165 478.508 599.085 478 597.691 478C596.298 478 595.211 478.514 594.43 479.543C593.661 480.572 593.277 481.822 593.277 483.293C593.277 484.79 593.661 486.047 594.43 487.062C595.211 488.078 596.298 488.586 597.691 488.586C599.085 488.586 600.165 488.072 600.934 487.043C601.715 486.014 602.105 484.764 602.105 483.293C602.105 481.796 601.715 480.539 600.934 479.523ZM577.574 490.578L593.102 461.945H596.266L580.211 490.578H577.574ZM577.945 461.418C579.833 461.418 581.344 462.128 582.477 463.547C583.622 464.953 584.195 466.75 584.195 468.938C584.195 471.073 583.622 472.831 582.477 474.211C581.331 475.591 579.82 476.281 577.945 476.281C576.057 476.281 574.553 475.598 573.434 474.23C572.314 472.85 571.754 471.086 571.754 468.938C571.754 466.763 572.314 464.966 573.434 463.547C574.566 462.128 576.07 461.418 577.945 461.418ZM577.945 463.586C576.773 463.586 575.862 464.107 575.211 465.148C574.56 466.19 574.234 467.453 574.234 468.938C574.234 470.435 574.553 471.659 575.191 472.609C575.842 473.547 576.76 474.016 577.945 474.016C579.13 474.016 580.048 473.534 580.699 472.57C581.35 471.594 581.676 470.383 581.676 468.938C581.676 467.44 581.344 466.177 580.68 465.148C580.016 464.107 579.104 463.586 577.945 463.586Z" fill="black"/>
<path d="M626.789 494.758H623.977L637.18 461.867H640.031L626.789 494.758Z" fill="black"/>
<path d="M668 485.949C668.742 486.548 669.634 486.848 670.676 486.848C671.717 486.848 672.603 486.548 673.332 485.949C674.074 485.35 674.634 484.523 675.012 483.469C675.402 482.401 675.682 481.268 675.852 480.07C676.021 478.859 676.105 477.518 676.105 476.047C676.105 468.99 674.296 465.461 670.676 465.461C667.082 465.461 665.259 468.964 665.207 475.969C665.207 477.453 665.292 478.801 665.461 480.012C665.63 481.223 665.91 482.368 666.301 483.449C666.691 484.517 667.258 485.35 668 485.949ZM674.836 490.129C673.612 490.65 672.225 490.91 670.676 490.91C669.126 490.91 667.733 490.65 666.496 490.129C665.259 489.595 664.237 488.879 663.43 487.98C662.622 487.069 661.945 485.982 661.398 484.719C660.865 483.456 660.48 482.121 660.246 480.715C660.025 479.309 659.914 477.805 659.914 476.203C659.914 474.576 660.031 473.052 660.266 471.633C660.5 470.201 660.891 468.853 661.438 467.59C661.984 466.314 662.661 465.227 663.469 464.328C664.289 463.43 665.311 462.72 666.535 462.199C667.759 461.665 669.139 461.398 670.676 461.398C672.212 461.398 673.592 461.665 674.816 462.199C676.04 462.72 677.056 463.436 677.863 464.348C678.671 465.246 679.341 466.333 679.875 467.609C680.422 468.872 680.812 470.214 681.047 471.633C681.281 473.052 681.398 474.576 681.398 476.203C681.398 477.805 681.281 479.309 681.047 480.715C680.826 482.121 680.448 483.462 679.914 484.738C679.38 486.001 678.71 487.082 677.902 487.98C677.095 488.879 676.073 489.595 674.836 490.129ZM688.098 490.852C687.251 490.852 686.535 490.559 685.949 489.973C685.363 489.387 685.07 488.69 685.07 487.883C685.07 487.062 685.357 486.353 685.93 485.754C686.516 485.155 687.238 484.855 688.098 484.855C688.931 484.855 689.634 485.155 690.207 485.754C690.78 486.353 691.066 487.062 691.066 487.883C691.066 488.69 690.78 489.387 690.207 489.973C689.634 490.559 688.931 490.852 688.098 490.852ZM694.23 490.5L694.113 486.281L703.156 476.047C704.276 474.849 705.09 473.749 705.598 472.746C706.118 471.73 706.379 470.663 706.379 469.543C706.379 468.306 705.975 467.323 705.168 466.594C704.361 465.852 703.299 465.48 701.984 465.48C700.773 465.48 699.576 465.708 698.391 466.164C697.219 466.607 696.255 467.167 695.5 467.844L694.035 463.977C695.988 462.258 698.736 461.398 702.277 461.398C705.09 461.398 707.349 462.108 709.055 463.527C710.773 464.934 711.633 466.926 711.633 469.504C711.633 471.327 711.145 473.065 710.168 474.719C709.204 476.372 707.883 478.072 706.203 479.816L699.758 486.652H711.301L710.949 490.5H694.23ZM723.742 490.91C722.453 490.91 721.125 490.702 719.758 490.285C718.391 489.855 717.349 489.452 716.633 489.074C715.917 488.684 715.441 488.384 715.207 488.176L716.77 484.504C717.017 484.699 717.375 484.947 717.844 485.246C718.326 485.533 719.094 485.865 720.148 486.242C721.216 486.62 722.238 486.809 723.215 486.809C725.038 486.809 726.418 486.301 727.355 485.285C728.293 484.27 728.762 482.941 728.762 481.301C728.762 479.751 728.332 478.508 727.473 477.57C726.626 476.633 725.526 476.164 724.172 476.164C722.557 476.164 721.112 476.867 719.836 478.273L716.418 477.609L717.16 462.023H732.707L732.414 466.047H721.691C721.691 466.281 721.646 467.46 721.555 469.582C721.477 471.691 721.431 472.87 721.418 473.117C722.564 472.505 723.768 472.199 725.031 472.199C727.661 472.199 729.777 473.046 731.379 474.738C732.993 476.431 733.801 478.638 733.801 481.359C733.801 484.25 732.915 486.568 731.145 488.312C729.387 490.044 726.919 490.91 723.742 490.91Z" fill="black"/>
<path d="M761.883 478.82C761.883 481.958 761.408 484.986 760.457 487.902C759.507 490.819 758.185 493.449 756.492 495.793H753.523C755.112 493.358 756.349 490.643 757.234 487.648C758.12 484.654 758.562 481.685 758.562 478.742C758.562 472.492 756.876 466.737 753.504 461.477H756.531C760.099 466.737 761.883 472.518 761.883 478.82Z" fill="black"/>
</svg>
