<svg width="250" height="250" viewBox="0 0 250 250" fill="none" xmlns="http://www.w3.org/2000/svg">
<path d="M39.9185 212.666H30V249.896H39.9185V212.666Z" fill="#202938"/>
<path d="M76.2877 231.321L69.9098 237.592L57.4043 249.897H44.667L63.5412 231.327L44.667 212.746V212.668H57.3317L69.9203 225.056L76.2877 231.321Z" fill="#202938"/>
<path d="M187.25 212.765L163.049 230.558H178.964C179.135 229.521 179.689 228.586 180.515 227.939C181.34 227.293 182.377 226.982 183.42 227.068C184.463 227.154 185.436 227.631 186.145 228.405C186.855 229.178 187.249 230.191 187.25 231.242C187.251 231.289 187.249 231.336 187.242 231.383C187.211 232.398 186.813 233.368 186.123 234.111C185.433 234.854 184.498 235.319 183.492 235.42C182.485 235.521 181.477 235.25 180.655 234.659C179.832 234.068 179.252 233.196 179.022 232.207H163.049L187.25 250C188.981 238.664 196.734 233.957 209.606 234.888V227.88C196.734 228.808 188.981 224.099 187.25 212.765Z" fill="#202938"/>
<path d="M211.577 218.663V242.901H220V218.663H211.577Z" fill="#202938"/>
<path d="M158.925 214.756H157.695V247.556H158.925V214.756Z" fill="#202938"/>
<path d="M158.278 249.995C159.618 249.995 160.704 248.903 160.704 247.556C160.704 246.209 159.618 245.118 158.278 245.118C156.938 245.118 155.851 246.209 155.851 247.556C155.851 248.903 156.938 249.995 158.278 249.995Z" fill="#202938"/>
<path d="M158.278 217.645C159.618 217.645 160.704 216.553 160.704 215.207C160.704 213.86 159.618 212.768 158.278 212.768C156.938 212.768 155.851 213.86 155.851 215.207C155.851 216.553 156.938 217.645 158.278 217.645Z" fill="#202938"/>
<path d="M160.77 228.795H155.851V233.737H160.77V228.795Z" fill="#202938"/>
<path d="M151.846 212.666H79.9274V249.996H151.846V212.666Z" fill="#202938"/>
<path d="M219.453 179.669L140.742 43.9097L137.626 38.5346L133.674 31.7078L116.445 1.99089C115.959 1.14658 115.182 0.510609 114.261 0.203209C113.34 -0.10419 112.339 -0.0616584 111.447 0.32282L111.44 0.319125L111.437 0.327798C110.944 0.533994 110.499 0.839518 110.129 1.22548C109.759 1.61145 109.472 2.06962 109.285 2.57167L109.134 2.96889C109.092 3.00623 109.06 3.05283 109.04 3.10487C104.135 15.7942 98.3792 30.7774 92.3862 46.4328L92.3794 46.4495C73.0097 97.0522 51.1648 154.679 47.5424 164.622C43.8463 174.768 35.2466 181.892 31.6279 184.543C31.5206 184.622 31.4408 184.732 31.3999 184.859C31.3589 184.986 31.3589 185.122 31.3998 185.249C31.4407 185.376 31.5205 185.487 31.6277 185.565C31.7349 185.644 31.8641 185.686 31.9968 185.686H83.551C84.4847 185.687 85.3964 185.402 86.1657 184.87C86.9349 184.338 87.5253 183.584 87.8588 182.708L120.977 95.7813V95.7844L173.088 185.686H216.007C216.708 185.686 217.396 185.501 218.002 185.148C218.609 184.796 219.112 184.289 219.462 183.679C219.811 183.069 219.994 182.377 219.993 181.673C219.991 180.969 219.805 180.278 219.453 179.669V179.669Z" fill="#202938"/>
</svg>
