<svg width="400" height="400" viewBox="0 0 400 400" fill="none" xmlns="http://www.w3.org/2000/svg">
<rect width="400" height="400" fill="#E95420"/>
<path d="M114.95 226.94C133.497 226.94 148.532 211.905 148.532 193.358C148.532 174.812 133.497 159.777 114.95 159.777C96.4038 159.777 81.3689 174.812 81.3689 193.358C81.3689 211.905 96.4038 226.94 114.95 226.94Z" fill="white"/>
<path d="M254.818 153.325C273.365 153.325 288.4 138.29 288.4 119.744C288.4 101.197 273.365 86.1621 254.818 86.1621C236.272 86.1621 221.237 101.197 221.237 119.744C221.237 138.29 236.272 153.325 254.818 153.325Z" fill="white"/>
<path d="M105.356 240.091C113.615 260.932 128.03 278.762 146.678 291.204C165.327 303.646 187.324 310.11 209.739 309.735C203.19 301.495 199.567 291.311 199.442 280.786C196.436 280.372 193.555 279.876 190.798 279.297C178.91 276.777 167.739 271.618 158.112 264.202C148.484 256.786 140.645 247.303 135.174 236.452C125.889 240.857 115.427 242.134 105.356 240.091Z" fill="white"/>
<path d="M247.25 313.54C265.796 313.54 280.831 298.505 280.831 279.959C280.831 261.412 265.796 246.377 247.25 246.377C228.703 246.377 213.668 261.412 213.668 279.959C213.668 298.505 228.703 313.54 247.25 313.54Z" fill="white"/>
<path d="M277.233 242.572C285.433 249.14 291.246 258.223 293.776 268.42C308.58 250.085 317.115 227.485 318.128 203.941C319.14 180.397 312.576 157.148 299.4 137.61C295.575 147.151 288.753 155.192 279.963 160.521C286.799 173.219 290.148 187.502 289.669 201.915C289.189 216.328 284.898 230.357 277.233 242.572Z" fill="white"/>
<path d="M115.033 145.55C118.369 145.544 121.696 145.89 124.959 146.584C130.488 147.781 135.764 149.936 140.55 152.953C147.942 142.188 157.81 133.354 169.324 127.194C180.838 121.034 193.663 117.727 206.72 117.552C206.817 114.913 207.121 112.285 207.63 109.694C209.236 102.291 212.55 95.3653 217.308 89.4706C196.143 87.7623 174.931 92.1466 156.178 102.106C137.425 112.065 121.914 127.183 111.476 145.674C112.676 145.591 113.834 145.55 115.033 145.55Z" fill="white"/>
</svg>
