<svg width="1584" height="411" viewBox="0 0 1584 411" fill="none" xmlns="http://www.w3.org/2000/svg">
<g clip-path="url(#clip0)">
<rect width="1584" height="411" fill="#F3F3F3"/>
<path d="M1342.9 293.008H1333.37V329.975H1342.9V293.008Z" fill="#202938"/>
<path d="M1377.87 311.53L1371.74 317.757L1359.71 329.974H1347.47L1365.61 311.536L1347.47 293.086V293.009H1359.64L1371.75 305.309L1377.87 311.53Z" fill="#202938"/>
<path d="M1484.54 293.105L1461.28 310.772H1476.58C1476.74 309.742 1477.27 308.813 1478.07 308.172C1478.86 307.53 1479.86 307.221 1480.86 307.307C1481.86 307.392 1482.8 307.866 1483.48 308.633C1484.16 309.401 1484.54 310.407 1484.54 311.451C1484.55 311.498 1484.54 311.545 1484.54 311.591C1484.51 312.599 1484.12 313.562 1483.46 314.299C1482.8 315.037 1481.9 315.499 1480.93 315.599C1479.96 315.699 1478.99 315.431 1478.2 314.844C1477.41 314.257 1476.85 313.391 1476.63 312.409H1461.28L1484.54 330.076C1486.21 318.821 1493.66 314.146 1506.04 315.071V308.113C1493.66 309.034 1486.21 304.359 1484.54 293.105Z" fill="#202938"/>
<path d="M1507.93 298.962V323.028H1516.03V298.962H1507.93Z" fill="#202938"/>
<path d="M1457.31 295.083H1456.13V327.651H1457.31V295.083Z" fill="#202938"/>
<path d="M1456.69 330.072C1457.98 330.072 1459.02 328.988 1459.02 327.65C1459.02 326.313 1457.98 325.229 1456.69 325.229C1455.4 325.229 1454.36 326.313 1454.36 327.65C1454.36 328.988 1455.4 330.072 1456.69 330.072Z" fill="#202938"/>
<path d="M1456.69 297.953C1457.98 297.953 1459.02 296.869 1459.02 295.531C1459.02 294.194 1457.98 293.11 1456.69 293.11C1455.4 293.11 1454.36 294.194 1454.36 295.531C1454.36 296.869 1455.4 297.953 1456.69 297.953Z" fill="#202938"/>
<path d="M1459.09 309.022H1454.36V313.93H1459.09V309.022Z" fill="#202938"/>
<path d="M1450.51 293.007H1381.37V330.073H1450.51V293.007Z" fill="#202938"/>
<path d="M1515.5 260.244L1439.83 125.447L1436.84 120.11L1433.04 113.332L1416.47 83.8254C1416.01 82.9871 1415.26 82.3556 1414.37 82.0504C1413.49 81.7452 1412.53 81.7874 1411.67 82.1692L1411.66 82.1655L1411.66 82.1741C1411.19 82.3788 1410.76 82.6822 1410.4 83.0654C1410.05 83.4487 1409.77 83.9036 1409.59 84.4021L1409.45 84.7965C1409.41 84.8336 1409.38 84.8798 1409.36 84.9315C1404.64 97.5308 1399.11 112.408 1393.35 127.952L1393.34 127.969C1374.72 178.213 1353.72 235.432 1350.23 245.304C1346.68 255.377 1338.41 262.451 1334.93 265.084C1334.83 265.162 1334.75 265.271 1334.71 265.397C1334.68 265.523 1334.68 265.659 1334.71 265.785C1334.75 265.911 1334.83 266.02 1334.93 266.098C1335.04 266.176 1335.16 266.218 1335.29 266.219H1384.85C1385.75 266.219 1386.63 265.936 1387.36 265.408C1388.1 264.88 1388.67 264.131 1388.99 263.261L1420.83 176.951V176.954L1470.93 266.218H1512.19C1512.86 266.218 1513.53 266.034 1514.11 265.684C1514.69 265.335 1515.18 264.831 1515.51 264.226C1515.85 263.62 1516.02 262.933 1516.02 262.234C1516.02 261.535 1515.84 260.849 1515.5 260.244Z" fill="#202938"/>
<g filter="url(#filter0_d)">
<path d="M1017.5 124.235C1020.4 122.585 1023.96 122.585 1026.87 124.235L1084.58 156.977C1087.56 158.665 1089.39 161.82 1089.39 165.24V230.425C1089.39 233.844 1087.56 237 1084.58 238.688L1026.87 271.43C1023.96 273.08 1020.4 273.08 1017.5 271.43L959.787 238.688C956.813 237 954.975 233.844 954.975 230.425V165.24C954.975 161.82 956.813 158.665 959.787 156.977L1017.5 124.235Z" fill="white"/>
<path d="M1017.5 124.235C1020.4 122.585 1023.96 122.585 1026.87 124.235L1084.58 156.977C1087.56 158.665 1089.39 161.82 1089.39 165.24V230.425C1089.39 233.844 1087.56 237 1084.58 238.688L1026.87 271.43C1023.96 273.08 1020.4 273.08 1017.5 271.43L959.787 238.688C956.813 237 954.975 233.844 954.975 230.425V165.24C954.975 161.82 956.813 158.665 959.787 156.977L1017.5 124.235Z" fill="url(#paint0_linear)" fill-opacity="0.2"/>
<path d="M1017.5 124.235C1020.4 122.585 1023.96 122.585 1026.87 124.235L1084.58 156.977C1087.56 158.665 1089.39 161.82 1089.39 165.24V230.425C1089.39 233.844 1087.56 237 1084.58 238.688L1026.87 271.43C1023.96 273.08 1020.4 273.08 1017.5 271.43L959.787 238.688C956.813 237 954.975 233.844 954.975 230.425V165.24C954.975 161.82 956.813 158.665 959.787 156.977L1017.5 124.235Z" stroke="#F2F2F2"/>
<path d="M1036.65 211.317C1039.24 211.038 1041.21 208.72 1041.12 205.938C1041.03 203.156 1038.8 200.93 1036.12 200.93H1035.94C1033.17 201.023 1031.02 203.434 1031.11 206.309C1031.2 207.7 1031.74 208.905 1032.54 209.74C1029.5 215.954 1024.86 220.498 1017.89 224.3C1013.15 226.897 1008.24 227.824 1003.32 227.175C999.303 226.618 996.176 224.764 994.21 221.703C991.35 217.159 991.082 212.244 993.495 207.329C995.193 203.805 997.873 201.208 999.571 199.91C999.214 198.704 998.677 196.664 998.409 195.18C985.453 204.918 986.793 218.086 990.725 224.3C993.674 228.937 999.66 231.812 1006.27 231.812C1008.06 231.812 1009.85 231.626 1011.63 231.163C1023.07 228.844 1031.74 221.796 1036.65 211.317Z" fill="#764ABC"/>
<path d="M1052.38 199.817C1045.59 191.563 1035.58 187.019 1024.14 187.019H1022.71C1021.91 185.35 1020.21 184.237 1018.34 184.237H1018.16C1015.39 184.33 1013.24 186.741 1013.33 189.616C1013.42 192.398 1015.65 194.624 1018.34 194.624H1018.51C1020.48 194.531 1022.18 193.233 1022.89 191.471H1024.5C1031.29 191.471 1037.72 193.511 1043.53 197.499C1048 200.559 1051.22 204.547 1053 209.369C1054.52 213.264 1054.43 217.066 1052.83 220.312C1050.32 225.227 1046.12 227.917 1040.58 227.917C1037.01 227.917 1033.61 226.804 1031.83 225.969C1030.84 226.897 1029.06 228.38 1027.81 229.308C1031.65 231.163 1035.58 232.183 1039.33 232.183C1047.91 232.183 1054.26 227.268 1056.67 222.352C1059.26 216.974 1059.08 207.7 1052.38 199.817Z" fill="#764ABC"/>
<path d="M1006.99 212.893C1007.08 215.675 1009.31 217.901 1011.99 217.901H1012.17C1014.94 217.808 1017.08 215.397 1016.99 212.522C1016.91 209.74 1014.67 207.514 1011.99 207.514H1011.81C1011.63 207.514 1011.37 207.514 1011.19 207.607C1007.52 201.301 1006 194.438 1006.54 187.019C1006.9 181.455 1008.69 176.633 1011.81 172.645C1014.4 169.213 1019.41 167.544 1022.8 167.451C1032.27 167.266 1036.3 179.507 1036.56 184.423C1037.72 184.701 1039.69 185.35 1041.03 185.814C1039.96 170.79 1031.02 163 1022.45 163C1014.4 163 1006.99 169.028 1004.04 177.931C999.928 189.801 1002.61 201.208 1007.61 210.204C1007.17 210.853 1006.9 211.873 1006.99 212.893Z" fill="#764ABC"/>
</g>
<g filter="url(#filter1_d)">
<path d="M705.25 123.8C708.31 122.063 712.058 122.063 715.119 123.8L772.829 156.542C775.959 158.319 777.894 161.64 777.894 165.24V230.425C777.894 234.024 775.959 237.346 772.829 239.122L715.119 271.865C712.058 273.602 708.31 273.602 705.25 271.865L647.54 239.122C644.409 237.346 642.475 234.024 642.475 230.425V165.24C642.475 161.64 644.409 158.319 647.54 156.542L705.25 123.8Z" fill="#F7DF1E"/>
<path d="M705.25 123.8C708.31 122.063 712.058 122.063 715.119 123.8L772.829 156.542C775.959 158.319 777.894 161.64 777.894 165.24V230.425C777.894 234.024 775.959 237.346 772.829 239.122L715.119 271.865C712.058 273.602 708.31 273.602 705.25 271.865L647.54 239.122C644.409 237.346 642.475 234.024 642.475 230.425V165.24C642.475 161.64 644.409 158.319 647.54 156.542L705.25 123.8Z" fill="url(#paint1_linear)" fill-opacity="0.2"/>
<path d="M718.433 208.804C720.673 212.601 723.588 215.392 728.744 215.392C733.075 215.392 735.842 213.145 735.842 210.041C735.842 206.321 732.999 205.004 728.232 202.839L725.619 201.676C718.076 198.341 713.065 194.163 713.065 185.33C713.065 177.194 719.038 171 728.373 171C735.019 171 739.797 173.401 743.239 179.686L735.1 185.11C733.308 181.775 731.375 180.461 728.373 180.461C725.311 180.461 723.371 182.477 723.371 185.11C723.371 188.365 725.313 189.682 729.798 191.698L732.411 192.86C741.292 196.812 746.306 200.842 746.306 209.902C746.306 219.669 738.914 225.02 728.986 225.02C719.278 225.02 713.007 220.219 709.938 213.926L718.433 208.804ZM681.508 209.744C683.15 212.768 684.644 215.324 688.235 215.324C691.67 215.324 693.836 213.93 693.836 208.507V171.619H704.288V208.654C704.288 219.887 697.943 225 688.68 225C680.311 225 675.465 220.505 673 215.091L681.508 209.744Z" fill="black"/>
</g>
<g filter="url(#filter2_d)">
<path d="M1174.25 123.8C1177.31 122.063 1181.06 122.063 1184.12 123.8L1241.83 156.542C1244.96 158.319 1246.89 161.64 1246.89 165.24V230.425C1246.89 234.024 1244.96 237.346 1241.83 239.122L1184.12 271.865C1181.06 273.602 1177.31 273.602 1174.25 271.865L1116.54 239.122C1113.41 237.346 1111.47 234.024 1111.47 230.425V165.24C1111.47 161.64 1113.41 158.319 1116.54 156.542L1174.25 123.8Z" fill="#CD6799"/>
<path d="M1174.25 123.8C1177.31 122.063 1181.06 122.063 1184.12 123.8L1241.83 156.542C1244.96 158.319 1246.89 161.64 1246.89 165.24V230.425C1246.89 234.024 1244.96 237.346 1241.83 239.122L1184.12 271.865C1181.06 273.602 1177.31 273.602 1174.25 271.865L1116.54 239.122C1113.41 237.346 1111.47 234.024 1111.47 230.425V165.24C1111.47 161.64 1113.41 158.319 1116.54 156.542L1174.25 123.8Z" fill="url(#paint2_linear)" fill-opacity="0.2"/>
<path d="M1217.18 202.984C1214.05 203.001 1211.34 203.78 1209.06 204.932C1208.23 203.221 1207.39 201.696 1207.24 200.578C1207.08 199.274 1206.88 198.478 1207.08 196.919C1207.28 195.36 1208.16 193.141 1208.14 192.972C1208.13 192.802 1207.95 192.006 1206.15 191.989C1204.35 191.972 1202.79 192.345 1202.61 192.836C1202.43 193.328 1202.09 194.446 1201.86 195.598C1201.55 197.292 1198.26 203.339 1196.37 206.507C1195.77 205.271 1195.24 204.186 1195.13 203.322C1194.96 202.018 1194.77 201.222 1194.96 199.663C1195.16 198.105 1196.04 195.886 1196.03 195.716C1196.01 195.547 1195.83 194.751 1194.03 194.734C1192.23 194.717 1190.67 195.089 1190.49 195.581C1190.31 196.072 1190.12 197.224 1189.74 198.342C1189.37 199.46 1184.99 209.556 1183.85 212.165C1183.26 213.504 1182.75 214.571 1182.39 215.299C1182.39 215.299 1182.37 215.35 1182.33 215.435C1182.01 216.062 1181.83 216.4 1181.83 216.4C1181.83 216.4 1181.83 216.4 1181.83 216.417C1181.59 216.875 1181.33 217.298 1181.2 217.298C1181.1 217.298 1180.92 216.079 1181.23 214.418C1181.88 210.912 1183.44 205.457 1183.42 205.271C1183.42 205.169 1183.72 204.22 1182.41 203.729C1181.13 203.238 1180.67 204.051 1180.56 204.051C1180.44 204.051 1180.36 204.339 1180.36 204.339C1180.36 204.339 1181.79 198.206 1177.64 198.206C1175.06 198.206 1171.49 201.137 1169.72 203.78C1168.61 204.407 1166.23 205.745 1163.69 207.185C1162.73 207.744 1161.73 208.303 1160.8 208.828C1160.73 208.76 1160.67 208.676 1160.6 208.608C1155.59 203.068 1146.32 199.155 1146.72 191.718C1146.86 189.008 1147.76 181.893 1164.51 173.253C1178.3 166.223 1189.27 168.171 1191.17 172.491C1193.88 178.657 1185.29 190.109 1171.05 191.769C1165.61 192.396 1162.76 190.228 1162.04 189.414C1161.29 188.567 1161.17 188.517 1160.89 188.686C1160.44 188.94 1160.73 189.702 1160.89 190.143C1161.32 191.295 1163.07 193.328 1166.04 194.327C1168.65 195.208 1175.02 195.699 1182.73 192.616C1191.36 189.16 1198.11 179.555 1196.13 171.509C1194.15 163.343 1181.05 160.65 1168.65 165.207C1161.29 167.917 1153.3 172.186 1147.55 177.743C1140.72 184.349 1139.64 190.092 1140.09 192.498C1141.67 201.035 1153.05 206.592 1157.6 210.708C1157.37 210.844 1157.16 210.963 1156.98 211.064C1154.71 212.233 1146.03 216.926 1143.87 221.889C1141.41 227.513 1144.26 231.545 1146.14 232.087C1151.99 233.764 1158 230.749 1161.22 225.768C1164.45 220.788 1164.05 214.317 1162.56 211.352C1162.55 211.318 1162.53 211.284 1162.5 211.251C1163.09 210.895 1163.69 210.522 1164.28 210.166C1165.45 209.455 1166.59 208.794 1167.57 208.252C1167.02 209.828 1166.61 211.708 1166.41 214.418C1166.17 217.603 1167.43 221.737 1169.08 223.363C1169.82 224.074 1170.68 224.091 1171.24 224.091C1173.17 224.091 1174.04 222.431 1175.01 220.466C1176.19 218.061 1177.25 215.265 1177.25 215.265C1177.25 215.265 1175.92 222.821 1179.53 222.821C1180.84 222.821 1182.16 221.059 1182.75 220.161C1182.75 220.178 1182.75 220.178 1182.75 220.178C1182.75 220.178 1182.78 220.127 1182.85 220.009C1182.98 219.788 1183.06 219.653 1183.06 219.653C1183.06 219.653 1183.06 219.636 1183.06 219.619C1183.59 218.67 1184.76 216.519 1186.52 212.945C1188.78 208.337 1190.95 202.577 1190.95 202.577C1190.95 202.577 1191.15 203.983 1191.82 206.321C1192.21 207.693 1193.03 209.201 1193.69 210.658C1193.16 211.42 1192.84 211.843 1192.84 211.843C1192.84 211.843 1192.84 211.843 1192.85 211.86C1192.43 212.436 1191.97 213.063 1191.46 213.673C1189.68 215.875 1187.55 218.399 1187.25 219.128C1186.91 219.992 1186.99 220.619 1187.65 221.127C1188.12 221.499 1188.97 221.55 1189.84 221.499C1191.44 221.381 1192.57 220.974 1193.13 220.72C1194 220.398 1195.01 219.907 1195.96 219.179C1197.71 217.84 1198.78 215.926 1198.68 213.402C1198.63 212.013 1198.19 210.624 1197.65 209.319C1197.81 209.082 1197.96 208.845 1198.12 208.608C1200.89 204.424 1203.04 199.833 1203.04 199.833C1203.04 199.833 1203.23 201.239 1203.9 203.577C1204.23 204.762 1204.9 206.05 1205.49 207.303C1202.89 209.489 1201.28 212.03 1200.71 213.69C1199.68 216.773 1200.48 218.162 1202 218.484C1202.69 218.636 1203.67 218.298 1204.39 217.976C1205.31 217.671 1206.39 217.146 1207.42 216.366C1209.17 215.028 1210.86 213.165 1210.76 210.641C1210.71 209.489 1210.42 208.354 1210.01 207.253C1212.22 206.304 1215.07 205.779 1218.7 206.219C1226.5 207.168 1228.04 212.199 1227.74 214.317C1227.45 216.434 1225.81 217.586 1225.27 217.942C1224.73 218.298 1224.55 218.416 1224.6 218.67C1224.66 219.043 1224.92 219.026 1225.38 218.958C1226.02 218.84 1229.48 217.247 1229.62 213.351C1229.87 208.371 1225.28 202.933 1217.18 202.984ZM1157.06 223.956C1154.48 226.869 1150.88 227.971 1149.32 227.039C1147.65 226.039 1148.3 221.737 1151.48 218.653C1153.41 216.773 1155.9 215.028 1157.55 213.961C1157.93 213.724 1158.49 213.385 1159.16 212.961C1159.27 212.894 1159.34 212.86 1159.34 212.86C1159.47 212.775 1159.6 212.69 1159.73 212.606C1160.89 217.01 1159.78 220.89 1157.06 223.956ZM1175.89 210.708C1174.99 212.978 1173.11 218.789 1171.96 218.467C1170.98 218.196 1170.37 213.792 1171.77 209.438C1172.47 207.253 1173.96 204.644 1174.83 203.627C1176.23 202.001 1177.79 201.459 1178.17 202.12C1178.64 202.984 1176.45 209.285 1175.89 210.708ZM1191.43 218.399C1191.05 218.603 1190.69 218.738 1190.53 218.636C1190.41 218.569 1190.69 218.298 1190.69 218.298C1190.69 218.298 1192.64 216.129 1193.41 215.147C1193.85 214.571 1194.37 213.893 1194.93 213.131C1194.93 213.199 1194.93 213.283 1194.93 213.351C1194.93 215.943 1192.51 217.688 1191.43 218.399ZM1203.41 215.57C1203.13 215.367 1203.18 214.689 1204.12 212.572C1204.48 211.742 1205.33 210.353 1206.78 209.014C1206.95 209.556 1207.06 210.082 1207.05 210.573C1207.03 213.842 1204.77 215.062 1203.41 215.57Z" fill="white"/>
</g>
<g filter="url(#filter3_d)">
<path d="M861.25 123.8C864.31 122.063 868.058 122.063 871.119 123.8L928.829 156.542C931.959 158.319 933.894 161.64 933.894 165.24V230.425C933.894 234.024 931.959 237.346 928.829 239.122L871.119 271.865C868.058 273.602 864.31 273.602 861.25 271.865L803.54 239.122C800.409 237.346 798.475 234.024 798.475 230.425V165.24C798.475 161.64 800.409 158.319 803.54 156.542L861.25 123.8Z" fill="#20232A"/>
<path d="M861.25 123.8C864.31 122.063 868.058 122.063 871.119 123.8L928.829 156.542C931.959 158.319 933.894 161.64 933.894 165.24V230.425C933.894 234.024 931.959 237.346 928.829 239.122L871.119 271.865C868.058 273.602 864.31 273.602 861.25 271.865L803.54 239.122C800.409 237.346 798.475 234.024 798.475 230.425V165.24C798.475 161.64 800.409 158.319 803.54 156.542L861.25 123.8Z" fill="url(#paint3_linear)" fill-opacity="0.2"/>
<path d="M900.015 197.861C900.015 193.271 894.456 188.92 885.932 186.223C887.899 177.24 887.025 170.093 883.173 167.805C882.285 167.268 881.247 167.014 880.113 167.014V170.164C880.741 170.164 881.247 170.291 881.67 170.531C883.528 171.633 884.334 175.827 883.705 181.223C883.555 182.55 883.309 183.949 883.009 185.375C880.331 184.697 877.408 184.175 874.335 183.836C872.491 181.223 870.578 178.85 868.652 176.774C873.105 172.494 877.285 170.15 880.126 170.15V167C876.37 167 871.452 169.768 866.48 174.57C861.508 169.797 856.591 167.056 852.834 167.056V170.206C855.662 170.206 859.855 172.537 864.308 176.788C862.396 178.864 860.484 181.223 858.667 183.836C855.58 184.175 852.656 184.697 849.979 185.389C849.665 183.977 849.433 182.607 849.269 181.293C848.627 175.898 849.419 171.703 851.263 170.587C851.673 170.333 852.206 170.22 852.834 170.22V167.071C851.687 167.071 850.649 167.325 849.747 167.862C845.909 170.15 845.048 177.282 847.029 186.237C838.532 188.949 833 193.285 833 197.861C833 202.451 838.56 206.801 847.083 209.499C845.116 218.482 845.991 225.629 849.843 227.917C850.73 228.453 851.769 228.708 852.916 228.708C856.672 228.708 861.59 225.939 866.562 221.137C871.534 225.911 876.452 228.651 880.208 228.651C881.356 228.651 882.394 228.397 883.296 227.86C887.134 225.572 887.994 218.439 886.014 209.485C894.483 206.787 900.015 202.437 900.015 197.861ZM882.23 188.44C881.725 190.262 881.096 192.141 880.386 194.019C879.826 192.889 879.239 191.759 878.597 190.629C877.968 189.499 877.299 188.398 876.63 187.324C878.569 187.621 880.441 187.988 882.23 188.44ZM875.974 203.482C874.908 205.389 873.816 207.197 872.682 208.878C870.646 209.061 868.584 209.16 866.508 209.16C864.445 209.16 862.382 209.061 860.361 208.892C859.227 207.211 858.12 205.417 857.055 203.525C856.017 201.674 855.074 199.796 854.214 197.903C855.061 196.011 856.017 194.118 857.041 192.268C858.107 190.361 859.2 188.553 860.333 186.872C862.369 186.689 864.431 186.59 866.508 186.59C868.57 186.59 870.633 186.689 872.654 186.858C873.788 188.539 874.895 190.333 875.96 192.225C876.998 194.076 877.941 195.954 878.801 197.847C877.941 199.739 876.998 201.632 875.974 203.482ZM880.386 201.646C881.124 203.539 881.752 205.431 882.271 207.267C880.482 207.719 878.597 208.101 876.643 208.397C877.312 207.31 877.982 206.194 878.61 205.05C879.239 203.92 879.826 202.776 880.386 201.646ZM866.535 216.716C865.265 215.36 863.994 213.849 862.737 212.197C863.967 212.253 865.224 212.296 866.494 212.296C867.778 212.296 869.048 212.267 870.291 212.197C869.062 213.849 867.792 215.36 866.535 216.716ZM856.372 208.397C854.432 208.101 852.561 207.734 850.771 207.282C851.277 205.46 851.905 203.581 852.616 201.703C853.176 202.832 853.763 203.962 854.405 205.092C855.047 206.222 855.703 207.324 856.372 208.397ZM866.467 179.005C867.737 180.361 869.007 181.873 870.264 183.525C869.035 183.469 867.778 183.426 866.508 183.426C865.224 183.426 863.953 183.454 862.71 183.525C863.94 181.873 865.21 180.361 866.467 179.005ZM856.358 187.324C855.689 188.412 855.02 189.528 854.391 190.672C853.763 191.802 853.176 192.932 852.616 194.062C851.878 192.169 851.25 190.276 850.73 188.44C852.52 188.002 854.405 187.621 856.358 187.324ZM843.996 205.008C839.161 202.875 836.032 200.078 836.032 197.861C836.032 195.643 839.161 192.833 843.996 190.714C845.171 190.192 846.455 189.725 847.78 189.288C848.559 192.056 849.583 194.937 850.853 197.889C849.597 200.827 848.586 203.694 847.821 206.448C846.469 206.01 845.185 205.53 843.996 205.008ZM851.345 225.191C849.487 224.089 848.681 219.894 849.31 214.499C849.46 213.171 849.706 211.773 850.006 210.346C852.684 211.024 855.607 211.547 858.68 211.886C860.525 214.499 862.437 216.872 864.363 218.948C859.91 223.227 855.73 225.572 852.889 225.572C852.274 225.558 851.755 225.431 851.345 225.191ZM883.746 214.428C884.388 219.824 883.596 224.018 881.752 225.134C881.342 225.388 880.809 225.501 880.181 225.501C877.353 225.501 873.16 223.171 868.707 218.92C870.619 216.843 872.532 214.485 874.348 211.872C877.435 211.533 880.359 211.01 883.036 210.318C883.35 211.745 883.596 213.115 883.746 214.428ZM889.005 205.008C887.831 205.53 886.547 205.996 885.222 206.434C884.443 203.666 883.418 200.785 882.148 197.833C883.405 194.895 884.416 192.028 885.181 189.273C886.533 189.711 887.817 190.192 889.019 190.714C893.855 192.847 896.983 195.643 896.983 197.861C896.969 200.078 893.841 202.889 889.005 205.008Z" fill="#61DAFB"/>
<path d="M866.494 204.316C869.942 204.316 872.736 201.426 872.736 197.861C872.736 194.296 869.942 191.406 866.494 191.406C863.046 191.406 860.251 194.296 860.251 197.861C860.251 201.426 863.046 204.316 866.494 204.316Z" fill="#61DAFB"/>
</g>
<g filter="url(#filter4_d)">
<path d="M392.25 123.8C395.31 122.063 399.058 122.063 402.119 123.8L459.829 156.542C462.959 158.319 464.894 161.64 464.894 165.24V230.425C464.894 234.024 462.959 237.346 459.829 239.122L402.119 271.865C399.058 273.602 395.31 273.602 392.25 271.865L334.54 239.122C331.409 237.346 329.475 234.024 329.475 230.425V165.24C329.475 161.64 331.409 158.319 334.54 156.542L392.25 123.8Z" fill="#4DA825"/>
<path d="M392.25 123.8C395.31 122.063 399.058 122.063 402.119 123.8L459.829 156.542C462.959 158.319 464.894 161.64 464.894 165.24V230.425C464.894 234.024 462.959 237.346 459.829 239.122L402.119 271.865C399.058 273.602 395.31 273.602 392.25 271.865L334.54 239.122C331.409 237.346 329.475 234.024 329.475 230.425V165.24C329.475 161.64 331.409 158.319 334.54 156.542L392.25 123.8Z" fill="url(#paint4_linear)" fill-opacity="0.2"/>
<path d="M426.348 174.241L402.175 159.337C399.303 157.567 395.742 157.567 392.84 159.337L368.667 174.241C365.795 176.011 364 179.302 364 182.873V212.651C364 216.191 365.765 219.482 368.667 221.283L392.84 236.187C394.276 237.088 395.892 237.522 397.508 237.522C399.123 237.522 400.739 237.088 402.175 236.187L426.348 221.283C429.22 219.513 431.015 216.222 431.015 212.651V182.873C431.015 179.302 429.25 176.011 426.348 174.241Z" fill="white"/>
<path d="M426.348 174.24L402.175 159.335C400.739 158.435 399.123 158 397.508 158C395.892 158 394.276 158.435 392.84 159.335L368.667 174.24C365.795 176.009 364 179.301 364 182.872V212.649C364 216.189 365.765 219.48 368.667 221.281L392.84 236.186C394.276 237.086 395.892 237.521 397.508 237.521C399.123 237.521 400.739 237.086 402.175 236.186L426.348 221.281C429.22 219.511 431.015 216.22 431.015 212.649V182.872C431.015 179.301 429.25 176.009 426.348 174.24ZM393.708 234.633L369.535 219.729C367.171 218.269 365.705 215.568 365.705 212.649V182.872C365.705 179.953 367.171 177.22 369.535 175.792L393.708 160.888C394.875 160.174 396.191 159.801 397.537 159.801C398.884 159.801 400.2 160.174 401.367 160.888L425.54 175.792C427.545 177.034 428.891 179.146 429.25 181.536C428.442 179.767 426.647 179.27 424.523 180.543L401.636 195.168C398.794 196.907 396.67 198.832 396.67 202.403V231.652C396.67 233.795 397.508 235.161 398.764 235.565C398.345 235.627 397.926 235.689 397.508 235.689C396.191 235.72 394.845 235.347 393.708 234.633Z" fill="#283037"/>
<path d="M420.035 215.537L414.022 219.263C413.872 219.356 413.753 219.48 413.753 219.667V221.312C413.753 221.499 413.872 221.592 414.052 221.499L420.155 217.648C420.305 217.555 420.335 217.369 420.335 217.183V215.754C420.305 215.506 420.185 215.444 420.035 215.537Z" fill="#4DA825"/>
<path d="M407.201 201.75C407.41 201.657 407.56 201.781 407.56 202.029L407.59 204.203C408.457 203.83 409.205 203.737 409.893 203.923C410.043 203.955 410.103 204.172 410.043 204.42L409.594 206.345C409.564 206.501 409.475 206.625 409.385 206.718C409.355 206.749 409.295 206.78 409.265 206.811C409.205 206.842 409.146 206.842 409.086 206.842C408.787 206.78 408.039 206.594 406.842 207.215C405.615 207.867 405.196 208.985 405.196 209.792C405.196 210.786 405.705 211.065 407.38 211.096C409.624 211.127 410.582 212.152 410.611 214.481C410.641 216.778 409.445 219.231 407.65 220.753L407.68 222.895C407.68 223.144 407.53 223.454 407.321 223.548L406.094 224.293C405.885 224.386 405.735 224.262 405.735 224.013L405.705 221.902C404.658 222.368 403.611 222.461 402.923 222.181C402.803 222.119 402.743 221.933 402.803 221.716L403.252 219.79C403.282 219.635 403.371 219.48 403.461 219.387C403.491 219.356 403.551 219.325 403.581 219.294C403.641 219.263 403.73 219.263 403.79 219.263C404.508 219.511 405.466 219.387 406.363 218.921C407.5 218.331 408.278 217.12 408.248 215.909C408.248 214.822 407.68 214.357 406.303 214.357C404.538 214.357 402.923 214.015 402.893 211.314C402.863 209.109 403.97 206.811 405.735 205.352L405.705 203.178C405.705 202.899 405.855 202.619 406.064 202.526L407.201 201.75Z" fill="white"/>
</g>
<g filter="url(#filter5_d)">
<path d="M549.25 123.8C552.31 122.063 556.058 122.063 559.119 123.8L616.829 156.542C619.959 158.319 621.894 161.64 621.894 165.24V230.425C621.894 234.024 619.959 237.346 616.829 239.122L559.119 271.865C556.058 273.602 552.31 273.602 549.25 271.865L491.54 239.122C488.409 237.346 486.475 234.024 486.475 230.425V165.24C486.475 161.64 488.409 158.319 491.54 156.542L549.25 123.8Z" fill="black"/>
<path d="M549.25 123.8C552.31 122.063 556.058 122.063 559.119 123.8L616.829 156.542C619.959 158.319 621.894 161.64 621.894 165.24V230.425C621.894 234.024 619.959 237.346 616.829 239.122L559.119 271.865C556.058 273.602 552.31 273.602 549.25 271.865L491.54 239.122C488.409 237.346 486.475 234.024 486.475 230.425V165.24C486.475 161.64 488.409 158.319 491.54 156.542L549.25 123.8Z" fill="url(#paint5_linear)" fill-opacity="0.2"/>
<g clip-path="url(#clip1)">
<path d="M545.171 234.015C551.336 234.015 556.338 229.011 556.338 222.846V211.677H545.171C539.007 211.677 534.005 216.681 534.005 222.846C534.005 229.011 539.007 234.015 545.171 234.015Z" fill="#0ACF83"/>
<path d="M534.005 200.508C534.005 194.342 539.007 189.338 545.171 189.338H556.338V211.677H545.171C539.007 211.677 534.005 206.673 534.005 200.508Z" fill="#A259FF"/>
<path d="M534.008 178.169C534.008 172.004 539.011 167 545.175 167H556.342V189.338H545.175C539.011 189.338 534.008 184.335 534.008 178.169Z" fill="#F24E1E"/>
<path d="M556.338 167H567.505C573.669 167 578.672 172.004 578.672 178.169C578.672 184.335 573.669 189.338 567.505 189.338H556.338V167Z" fill="#FF7262"/>
<path d="M578.672 200.508C578.672 206.673 573.669 211.677 567.505 211.677C561.341 211.677 556.338 206.673 556.338 200.508C556.338 194.342 561.341 189.338 567.505 189.338C573.669 189.338 578.672 194.342 578.672 200.508Z" fill="#1ABCFE"/>
</g>
</g>
<path d="M337.441 83.0928H330.878V90H328.815V74.3594H338.505V76.0566H330.878V81.4062H337.441V83.0928ZM346.003 80.1602C345.702 80.11 345.376 80.085 345.025 80.085C343.722 80.085 342.838 80.64 342.372 81.75V90H340.385V78.377H342.318L342.351 79.7197C343.002 78.6813 343.926 78.1621 345.122 78.1621C345.509 78.1621 345.802 78.2122 346.003 78.3125V80.1602ZM347.099 84.0811C347.099 82.9424 347.321 81.9183 347.765 81.0088C348.216 80.0993 348.839 79.3975 349.634 78.9033C350.436 78.4092 351.349 78.1621 352.373 78.1621C353.956 78.1621 355.234 78.71 356.208 79.8057C357.189 80.9014 357.68 82.3587 357.68 84.1777V84.3174C357.68 85.4489 357.461 86.4658 357.024 87.3682C356.595 88.2633 355.975 88.9616 355.166 89.4629C354.364 89.9642 353.44 90.2148 352.395 90.2148C350.819 90.2148 349.541 89.667 348.56 88.5713C347.586 87.4756 347.099 86.0254 347.099 84.2207V84.0811ZM349.097 84.3174C349.097 85.6064 349.394 86.6413 349.988 87.4219C350.59 88.2025 351.392 88.5928 352.395 88.5928C353.404 88.5928 354.206 88.1989 354.801 87.4111C355.395 86.6162 355.692 85.5062 355.692 84.0811C355.692 82.8063 355.388 81.7751 354.779 80.9873C354.178 80.1924 353.376 79.7949 352.373 79.7949C351.392 79.7949 350.601 80.1852 349.999 80.9658C349.397 81.7464 349.097 82.8636 349.097 84.3174ZM362.052 78.377L362.116 79.8379C363.004 78.7207 364.164 78.1621 365.597 78.1621C368.053 78.1621 369.292 79.5479 369.313 82.3193V90H367.326V82.3086C367.319 81.4707 367.126 80.8512 366.746 80.4502C366.374 80.0492 365.79 79.8486 364.995 79.8486C364.351 79.8486 363.785 80.0205 363.298 80.3643C362.811 80.708 362.431 81.1592 362.159 81.7178V90H360.172V78.377H362.052ZM375.007 75.5625V78.377H377.177V79.9131H375.007V87.1211C375.007 87.5866 375.104 87.9375 375.297 88.1738C375.49 88.403 375.82 88.5176 376.285 88.5176C376.514 88.5176 376.829 88.4746 377.23 88.3887V90C376.708 90.1432 376.199 90.2148 375.705 90.2148C374.817 90.2148 374.147 89.9463 373.696 89.4092C373.245 88.8721 373.02 88.1094 373.02 87.1211V79.9131H370.903V78.377H373.02V75.5625H375.007ZM384.331 90.2148C382.756 90.2148 381.474 89.6992 380.485 88.668C379.497 87.6296 379.003 86.2438 379.003 84.5107V84.1455C379.003 82.9925 379.221 81.9648 379.658 81.0625C380.102 80.153 380.718 79.444 381.506 78.9355C382.301 78.4199 383.16 78.1621 384.084 78.1621C385.595 78.1621 386.77 78.6598 387.607 79.6553C388.445 80.6507 388.864 82.0758 388.864 83.9307V84.7578H380.99C381.019 85.9036 381.352 86.8311 381.989 87.54C382.634 88.2419 383.45 88.5928 384.438 88.5928C385.14 88.5928 385.735 88.4495 386.222 88.1631C386.709 87.8766 387.135 87.4971 387.5 87.0244L388.714 87.9697C387.74 89.4665 386.279 90.2148 384.331 90.2148ZM384.084 79.7949C383.282 79.7949 382.609 80.0885 382.064 80.6758C381.52 81.2559 381.184 82.0723 381.055 83.125H386.877V82.9746C386.82 81.9648 386.548 81.1842 386.061 80.6328C385.574 80.0742 384.915 79.7949 384.084 79.7949ZM393.054 78.377L393.118 79.8379C394.006 78.7207 395.166 78.1621 396.599 78.1621C399.055 78.1621 400.294 79.5479 400.315 82.3193V90H398.328V82.3086C398.321 81.4707 398.128 80.8512 397.748 80.4502C397.376 80.0492 396.792 79.8486 395.997 79.8486C395.353 79.8486 394.787 80.0205 394.3 80.3643C393.813 80.708 393.433 81.1592 393.161 81.7178V90H391.174V78.377H393.054ZM402.829 84.0918C402.829 82.3086 403.252 80.8763 404.097 79.7949C404.942 78.7064 406.048 78.1621 407.416 78.1621C408.777 78.1621 409.854 78.6276 410.649 79.5586V73.5H412.637V90H410.811L410.714 88.7539C409.919 89.7279 408.812 90.2148 407.395 90.2148C406.048 90.2148 404.949 89.6634 404.097 88.5605C403.252 87.4577 402.829 86.0182 402.829 84.2422V84.0918ZM404.816 84.3174C404.816 85.6351 405.089 86.6663 405.633 87.4111C406.177 88.1559 406.929 88.5283 407.889 88.5283C409.149 88.5283 410.069 87.9626 410.649 86.8311V81.4922C410.055 80.3965 409.142 79.8486 407.91 79.8486C406.936 79.8486 406.177 80.2246 405.633 80.9766C405.089 81.7285 404.816 82.8421 404.816 84.3174ZM420.769 85.7998C420.769 85.0479 420.976 84.3568 421.392 83.7266C421.814 83.0964 422.616 82.3623 423.798 81.5244C423.103 80.6794 422.638 79.999 422.401 79.4834C422.165 78.9678 422.047 78.4557 422.047 77.9473C422.047 76.7585 422.398 75.8275 423.1 75.1543C423.801 74.4811 424.754 74.1445 425.957 74.1445C427.031 74.1445 427.919 74.4596 428.621 75.0898C429.323 75.7129 429.674 76.5007 429.674 77.4531C429.674 78.0833 429.513 78.667 429.19 79.2041C428.875 79.734 428.32 80.2926 427.525 80.8799L426.376 81.7285L429.856 85.8857C430.343 84.9548 430.587 83.9199 430.587 82.7812H432.381C432.381 84.6074 431.94 86.1221 431.06 87.3252L433.294 90H430.909L429.867 88.7646C429.337 89.2373 428.714 89.599 427.998 89.8496C427.289 90.0931 426.566 90.2148 425.828 90.2148C424.303 90.2148 423.078 89.8102 422.154 89.001C421.23 88.1917 420.769 87.1247 420.769 85.7998ZM425.828 88.5928C426.881 88.5928 427.844 88.1917 428.718 87.3896L424.904 82.8242L424.55 83.082C423.354 83.9629 422.756 84.8688 422.756 85.7998C422.756 86.6449 423.028 87.3216 423.572 87.8301C424.124 88.3385 424.876 88.5928 425.828 88.5928ZM424.034 77.8828C424.034 78.5703 424.457 79.4297 425.302 80.4609L426.569 79.5693C427.056 79.2256 427.389 78.8997 427.568 78.5918C427.747 78.2767 427.837 77.8971 427.837 77.4531C427.837 76.9733 427.658 76.5758 427.3 76.2607C426.942 75.9385 426.491 75.7773 425.946 75.7773C425.359 75.7773 424.894 75.9779 424.55 76.3789C424.206 76.7728 424.034 77.2741 424.034 77.8828ZM451.652 74.3594V84.9941C451.645 86.4694 451.18 87.6761 450.256 88.6143C449.339 89.5524 448.093 90.0788 446.518 90.1934L445.97 90.2148C444.258 90.2148 442.894 89.7529 441.877 88.8291C440.86 87.9053 440.344 86.6341 440.33 85.0156V74.3594H442.371V84.9512C442.371 86.0827 442.683 86.9635 443.306 87.5938C443.929 88.2168 444.817 88.5283 445.97 88.5283C447.137 88.5283 448.029 88.2168 448.645 87.5938C449.268 86.9707 449.579 86.0934 449.579 84.9619V74.3594H451.652ZM460.01 80.3535L463.759 74.3594H466.187L461.245 82.1152L466.305 90H463.855L460.01 83.8984L456.143 90H453.704L458.774 82.1152L453.822 74.3594H456.239L460.01 80.3535ZM477.981 84.167H472.739V82.5449H477.981V84.167ZM492.559 90C492.444 89.7708 492.351 89.3626 492.279 88.7754C491.355 89.735 490.253 90.2148 488.971 90.2148C487.825 90.2148 486.883 89.8926 486.146 89.248C485.415 88.5964 485.05 87.7728 485.05 86.7773C485.05 85.5671 485.508 84.6289 486.425 83.9629C487.349 83.2897 488.645 82.9531 490.313 82.9531H492.247V82.04C492.247 81.3454 492.039 80.7939 491.624 80.3857C491.209 79.9704 490.596 79.7627 489.787 79.7627C489.078 79.7627 488.484 79.9417 488.004 80.2998C487.524 80.6579 487.284 81.0911 487.284 81.5996H485.286C485.286 81.0195 485.49 80.4609 485.898 79.9238C486.314 79.3796 486.872 78.9499 487.574 78.6348C488.283 78.3197 489.06 78.1621 489.905 78.1621C491.244 78.1621 492.294 78.4987 493.053 79.1719C493.812 79.8379 494.206 80.7581 494.234 81.9326V87.2822C494.234 88.3493 494.37 89.1979 494.643 89.8281V90H492.559ZM489.261 88.4854C489.884 88.4854 490.475 88.3242 491.033 88.002C491.592 87.6797 491.996 87.2607 492.247 86.7451V84.3604H490.689C488.255 84.3604 487.037 85.0729 487.037 86.498C487.037 87.1211 487.245 87.6081 487.66 87.959C488.076 88.3099 488.609 88.4854 489.261 88.4854ZM504.525 90C504.411 89.7708 504.318 89.3626 504.246 88.7754C503.322 89.735 502.219 90.2148 500.938 90.2148C499.792 90.2148 498.85 89.8926 498.112 89.248C497.382 88.5964 497.017 87.7728 497.017 86.7773C497.017 85.5671 497.475 84.6289 498.392 83.9629C499.315 83.2897 500.612 82.9531 502.28 82.9531H504.214V82.04C504.214 81.3454 504.006 80.7939 503.591 80.3857C503.175 79.9704 502.563 79.7627 501.754 79.7627C501.045 79.7627 500.451 79.9417 499.971 80.2998C499.491 80.6579 499.251 81.0911 499.251 81.5996H497.253C497.253 81.0195 497.457 80.4609 497.865 79.9238C498.281 79.3796 498.839 78.9499 499.541 78.6348C500.25 78.3197 501.027 78.1621 501.872 78.1621C503.211 78.1621 504.26 78.4987 505.02 79.1719C505.779 79.8379 506.173 80.7581 506.201 81.9326V87.2822C506.201 88.3493 506.337 89.1979 506.609 89.8281V90H504.525ZM501.228 88.4854C501.851 88.4854 502.441 88.3242 503 88.002C503.559 87.6797 503.963 87.2607 504.214 86.7451V84.3604H502.656C500.221 84.3604 499.004 85.0729 499.004 86.498C499.004 87.1211 499.212 87.6081 499.627 87.959C500.042 88.3099 500.576 88.4854 501.228 88.4854ZM511.186 78.377L511.239 79.666C512.091 78.6634 513.241 78.1621 514.688 78.1621C516.313 78.1621 517.42 78.7852 518.007 80.0312C518.394 79.4727 518.895 79.0215 519.511 78.6777C520.134 78.334 520.868 78.1621 521.713 78.1621C524.262 78.1621 525.559 79.512 525.602 82.2119V90H523.614V82.3301C523.614 81.4993 523.424 80.8799 523.045 80.4717C522.665 80.0563 522.028 79.8486 521.133 79.8486C520.395 79.8486 519.783 80.0706 519.296 80.5146C518.809 80.9515 518.526 81.5423 518.447 82.2871V90H516.449V82.3838C516.449 80.6937 515.622 79.8486 513.968 79.8486C512.664 79.8486 511.773 80.4036 511.293 81.5137V90H509.306V78.377H511.186ZM530.489 78.377L530.554 79.8379C531.442 78.7207 532.602 78.1621 534.034 78.1621C536.491 78.1621 537.729 79.5479 537.751 82.3193V90H535.764V82.3086C535.757 81.4707 535.563 80.8512 535.184 80.4502C534.811 80.0492 534.228 79.8486 533.433 79.8486C532.788 79.8486 532.222 80.0205 531.735 80.3643C531.248 80.708 530.869 81.1592 530.597 81.7178V90H528.609V78.377H530.489ZM547.924 90C547.809 89.7708 547.716 89.3626 547.645 88.7754C546.721 89.735 545.618 90.2148 544.336 90.2148C543.19 90.2148 542.248 89.8926 541.511 89.248C540.78 88.5964 540.415 87.7728 540.415 86.7773C540.415 85.5671 540.873 84.6289 541.79 83.9629C542.714 83.2897 544.01 82.9531 545.679 82.9531H547.612V82.04C547.612 81.3454 547.405 80.7939 546.989 80.3857C546.574 79.9704 545.962 79.7627 545.152 79.7627C544.443 79.7627 543.849 79.9417 543.369 80.2998C542.889 80.6579 542.649 81.0911 542.649 81.5996H540.651C540.651 81.0195 540.855 80.4609 541.264 79.9238C541.679 79.3796 542.238 78.9499 542.939 78.6348C543.648 78.3197 544.425 78.1621 545.271 78.1621C546.61 78.1621 547.659 78.4987 548.418 79.1719C549.177 79.8379 549.571 80.7581 549.6 81.9326V87.2822C549.6 88.3493 549.736 89.1979 550.008 89.8281V90H547.924ZM544.626 88.4854C545.249 88.4854 545.84 88.3242 546.398 88.002C546.957 87.6797 547.362 87.2607 547.612 86.7451V84.3604H546.055C543.62 84.3604 542.402 85.0729 542.402 86.498C542.402 87.1211 542.61 87.6081 543.025 87.959C543.441 88.3099 543.974 88.4854 544.626 88.4854ZM554.702 79.7842C555.583 78.7028 556.729 78.1621 558.14 78.1621C560.596 78.1621 561.835 79.5479 561.856 82.3193V90H559.869V82.3086C559.862 81.4707 559.669 80.8512 559.289 80.4502C558.917 80.0492 558.333 79.8486 557.538 79.8486C556.894 79.8486 556.328 80.0205 555.841 80.3643C555.354 80.708 554.974 81.1592 554.702 81.7178V90H552.715V73.5H554.702V79.7842ZM564.875 88.958C564.875 88.6143 564.975 88.3278 565.176 88.0986C565.383 87.8695 565.691 87.7549 566.1 87.7549C566.508 87.7549 566.816 87.8695 567.023 88.0986C567.238 88.3278 567.346 88.6143 567.346 88.958C567.346 89.2874 567.238 89.5632 567.023 89.7852C566.816 90.0072 566.508 90.1182 566.1 90.1182C565.691 90.1182 565.383 90.0072 565.176 89.7852C564.975 89.5632 564.875 89.2874 564.875 88.958ZM575.295 88.5928C576.004 88.5928 576.623 88.3779 577.153 87.9482C577.683 87.5186 577.977 86.9814 578.034 86.3369H579.914C579.878 87.0029 579.649 87.6367 579.227 88.2383C578.804 88.8398 578.238 89.3197 577.529 89.6777C576.827 90.0358 576.083 90.2148 575.295 90.2148C573.712 90.2148 572.452 89.6885 571.514 88.6357C570.583 87.5758 570.117 86.1292 570.117 84.2959V83.9629C570.117 82.8314 570.325 81.8252 570.74 80.9443C571.156 80.0635 571.75 79.3796 572.523 78.8926C573.304 78.4056 574.224 78.1621 575.284 78.1621C576.588 78.1621 577.669 78.5524 578.528 79.333C579.395 80.1136 579.857 81.127 579.914 82.373H578.034C577.977 81.6211 577.69 81.0052 577.175 80.5254C576.666 80.0384 576.036 79.7949 575.284 79.7949C574.274 79.7949 573.49 80.1602 572.932 80.8906C572.38 81.6139 572.104 82.6631 572.104 84.0381V84.4141C572.104 85.7533 572.38 86.7845 572.932 87.5078C573.483 88.2311 574.271 88.5928 575.295 88.5928ZM581.622 84.0811C581.622 82.9424 581.844 81.9183 582.288 81.0088C582.739 80.0993 583.362 79.3975 584.157 78.9033C584.959 78.4092 585.872 78.1621 586.896 78.1621C588.479 78.1621 589.757 78.71 590.731 79.8057C591.713 80.9014 592.203 82.3587 592.203 84.1777V84.3174C592.203 85.4489 591.985 86.4658 591.548 87.3682C591.118 88.2633 590.499 88.9616 589.689 89.4629C588.887 89.9642 587.964 90.2148 586.918 90.2148C585.342 90.2148 584.064 89.667 583.083 88.5713C582.109 87.4756 581.622 86.0254 581.622 84.2207V84.0811ZM583.62 84.3174C583.62 85.6064 583.917 86.6413 584.512 87.4219C585.113 88.2025 585.915 88.5928 586.918 88.5928C587.928 88.5928 588.73 88.1989 589.324 87.4111C589.919 86.6162 590.216 85.5062 590.216 84.0811C590.216 82.8063 589.911 81.7751 589.303 80.9873C588.701 80.1924 587.899 79.7949 586.896 79.7949C585.915 79.7949 585.124 80.1852 584.522 80.9658C583.921 81.7464 583.62 82.8636 583.62 84.3174ZM596.564 78.377L596.618 79.666C597.47 78.6634 598.62 78.1621 600.066 78.1621C601.692 78.1621 602.799 78.7852 603.386 80.0312C603.772 79.4727 604.274 79.0215 604.89 78.6777C605.513 78.334 606.247 78.1621 607.092 78.1621C609.641 78.1621 610.938 79.512 610.98 82.2119V90H608.993V82.3301C608.993 81.4993 608.803 80.8799 608.424 80.4717C608.044 80.0563 607.407 79.8486 606.512 79.8486C605.774 79.8486 605.162 80.0706 604.675 80.5146C604.188 80.9515 603.905 81.5423 603.826 82.2871V90H601.828V82.3838C601.828 80.6937 601.001 79.8486 599.347 79.8486C598.043 79.8486 597.152 80.4036 596.672 81.5137V90H594.685V78.377H596.564Z" fill="#202938" fill-opacity="0.5"/>
</g>
<defs>
<filter id="filter0_d" x="944.475" y="116.497" width="155.419" height="170.67" filterUnits="userSpaceOnUse" color-interpolation-filters="sRGB">
<feFlood flood-opacity="0" result="BackgroundImageFix"/>
<feColorMatrix in="SourceAlpha" type="matrix" values="0 0 0 0 0 0 0 0 0 0 0 0 0 0 0 0 0 0 127 0"/>
<feOffset dy="4"/>
<feGaussianBlur stdDeviation="5"/>
<feColorMatrix type="matrix" values="0 0 0 0 0.870833 0 0 0 0 0.870833 0 0 0 0 0.870833 0 0 0 0.3 0"/>
<feBlend mode="normal" in2="BackgroundImageFix" result="effect1_dropShadow"/>
<feBlend mode="normal" in="SourceGraphic" in2="effect1_dropShadow" result="shape"/>
</filter>
<filter id="filter1_d" x="622.475" y="106.497" width="175.419" height="190.67" filterUnits="userSpaceOnUse" color-interpolation-filters="sRGB">
<feFlood flood-opacity="0" result="BackgroundImageFix"/>
<feColorMatrix in="SourceAlpha" type="matrix" values="0 0 0 0 0 0 0 0 0 0 0 0 0 0 0 0 0 0 127 0"/>
<feOffset dy="4"/>
<feGaussianBlur stdDeviation="10"/>
<feColorMatrix type="matrix" values="0 0 0 0 0.825 0 0 0 0 0.754888 0 0 0 0 0.17875 0 0 0 0.15 0"/>
<feBlend mode="normal" in2="BackgroundImageFix" result="effect1_dropShadow"/>
<feBlend mode="normal" in="SourceGraphic" in2="effect1_dropShadow" result="shape"/>
</filter>
<filter id="filter2_d" x="1091.47" y="106.497" width="175.419" height="190.67" filterUnits="userSpaceOnUse" color-interpolation-filters="sRGB">
<feFlood flood-opacity="0" result="BackgroundImageFix"/>
<feColorMatrix in="SourceAlpha" type="matrix" values="0 0 0 0 0 0 0 0 0 0 0 0 0 0 0 0 0 0 127 0"/>
<feOffset dy="4"/>
<feGaussianBlur stdDeviation="10"/>
<feColorMatrix type="matrix" values="0 0 0 0 0.766667 0 0 0 0 0.408889 0 0 0 0 0.585934 0 0 0 0.1 0"/>
<feBlend mode="normal" in2="BackgroundImageFix" result="effect1_dropShadow"/>
<feBlend mode="normal" in="SourceGraphic" in2="effect1_dropShadow" result="shape"/>
</filter>
<filter id="filter3_d" x="778.475" y="106.497" width="175.419" height="190.67" filterUnits="userSpaceOnUse" color-interpolation-filters="sRGB">
<feFlood flood-opacity="0" result="BackgroundImageFix"/>
<feColorMatrix in="SourceAlpha" type="matrix" values="0 0 0 0 0 0 0 0 0 0 0 0 0 0 0 0 0 0 127 0"/>
<feOffset dy="4"/>
<feGaussianBlur stdDeviation="10"/>
<feColorMatrix type="matrix" values="0 0 0 0 0.154687 0 0 0 0 0.161979 0 0 0 0 0.1875 0 0 0 0.1 0"/>
<feBlend mode="normal" in2="BackgroundImageFix" result="effect1_dropShadow"/>
<feBlend mode="normal" in="SourceGraphic" in2="effect1_dropShadow" result="shape"/>
</filter>
<filter id="filter4_d" x="309.475" y="106.497" width="175.419" height="190.67" filterUnits="userSpaceOnUse" color-interpolation-filters="sRGB">
<feFlood flood-opacity="0" result="BackgroundImageFix"/>
<feColorMatrix in="SourceAlpha" type="matrix" values="0 0 0 0 0 0 0 0 0 0 0 0 0 0 0 0 0 0 127 0"/>
<feOffset dy="4"/>
<feGaussianBlur stdDeviation="10"/>
<feColorMatrix type="matrix" values="0 0 0 0 0.465458 0 0 0 0 0.604167 0 0 0 0 0.405295 0 0 0 0.25 0"/>
<feBlend mode="normal" in2="BackgroundImageFix" result="effect1_dropShadow"/>
<feBlend mode="normal" in="SourceGraphic" in2="effect1_dropShadow" result="shape"/>
</filter>
<filter id="filter5_d" x="466.475" y="106.497" width="175.419" height="190.67" filterUnits="userSpaceOnUse" color-interpolation-filters="sRGB">
<feFlood flood-opacity="0" result="BackgroundImageFix"/>
<feColorMatrix in="SourceAlpha" type="matrix" values="0 0 0 0 0 0 0 0 0 0 0 0 0 0 0 0 0 0 127 0"/>
<feOffset dy="4"/>
<feGaussianBlur stdDeviation="10"/>
<feColorMatrix type="matrix" values="0 0 0 0 0 0 0 0 0 0 0 0 0 0 0 0 0 0 0.05 0"/>
<feBlend mode="normal" in2="BackgroundImageFix" result="effect1_dropShadow"/>
<feBlend mode="normal" in="SourceGraphic" in2="effect1_dropShadow" result="shape"/>
</filter>
<linearGradient id="paint0_linear" x1="1022.18" y1="121" x2="1022.18" y2="274.665" gradientUnits="userSpaceOnUse">
<stop stop-color="white"/>
<stop offset="1" stop-color="white" stop-opacity="0"/>
</linearGradient>
<linearGradient id="paint1_linear" x1="710.184" y1="121" x2="710.184" y2="274.665" gradientUnits="userSpaceOnUse">
<stop stop-color="white"/>
<stop offset="1" stop-color="white" stop-opacity="0"/>
</linearGradient>
<linearGradient id="paint2_linear" x1="1179.18" y1="121" x2="1179.18" y2="274.665" gradientUnits="userSpaceOnUse">
<stop stop-color="white"/>
<stop offset="1" stop-color="white" stop-opacity="0"/>
</linearGradient>
<linearGradient id="paint3_linear" x1="866.184" y1="121" x2="866.184" y2="274.665" gradientUnits="userSpaceOnUse">
<stop stop-color="white"/>
<stop offset="1" stop-color="white" stop-opacity="0"/>
</linearGradient>
<linearGradient id="paint4_linear" x1="397.184" y1="121" x2="397.184" y2="274.665" gradientUnits="userSpaceOnUse">
<stop stop-color="white"/>
<stop offset="1" stop-color="white" stop-opacity="0"/>
</linearGradient>
<linearGradient id="paint5_linear" x1="554.184" y1="121" x2="554.184" y2="274.665" gradientUnits="userSpaceOnUse">
<stop stop-color="white"/>
<stop offset="1" stop-color="white" stop-opacity="0"/>
</linearGradient>
<clipPath id="clip0">
<rect width="1584" height="411" fill="white"/>
</clipPath>
<clipPath id="clip1">
<rect x="534" y="167" width="44.6767" height="67.0151" fill="white"/>
</clipPath>
</defs>
</svg>
