<svg width="400" height="400" viewBox="0 0 400 400" fill="none" xmlns="http://www.w3.org/2000/svg">
<path d="M62.9475 340.265H47V399.834H62.9475V340.265Z" fill="white"/>
<path d="M121.424 370.114L91.0622 399.835H70.5824L100.929 370.124L70.5824 340.393V340.269H90.9455L121.424 370.114Z" fill="white"/>
<path d="M299.836 340.424L260.923 368.893H286.513C286.789 367.233 287.679 365.737 289.006 364.703C290.333 363.669 292.001 363.171 293.678 363.309C295.355 363.447 296.919 364.21 298.06 365.447C299.2 366.685 299.834 368.305 299.836 369.988C299.838 370.063 299.834 370.138 299.823 370.212C299.773 371.838 299.134 373.389 298.024 374.577C296.915 375.766 295.411 376.51 293.793 376.672C292.175 376.833 290.554 376.401 289.231 375.455C287.909 374.509 286.976 373.114 286.606 371.531H260.923L299.836 400C302.618 381.863 315.084 374.331 335.781 375.821V364.609C315.085 366.093 302.618 358.559 299.836 340.424Z" fill="white"/>
<path d="M338.951 349.86V388.641H352.493V349.86H338.951Z" fill="white"/>
<path d="M254.292 343.61H252.315V396.09H254.292V343.61Z" fill="white"/>
<path d="M253.252 399.991C255.407 399.991 257.154 398.244 257.154 396.09C257.154 393.935 255.407 392.188 253.252 392.188C251.098 392.188 249.351 393.935 249.351 396.09C249.351 398.244 251.098 399.991 253.252 399.991Z" fill="white"/>
<path d="M253.252 348.233C255.407 348.233 257.154 346.486 257.154 344.331C257.154 342.176 255.407 340.429 253.252 340.429C251.098 340.429 249.351 342.176 249.351 344.331C249.351 346.486 251.098 348.233 253.252 348.233Z" fill="white"/>
<path d="M257.259 366.072H249.351V373.98H257.259V366.072Z" fill="white"/>
<path d="M242.911 340.265H127.276V399.994H242.911V340.265Z" fill="white"/>
<path d="M351.613 287.471L185.991 3.18542C185.21 1.83453 183.961 0.816973 182.48 0.325135C180.999 -0.166703 179.389 -0.0986534 177.955 0.516513L177.944 0.5106L177.939 0.524477C177.147 0.85439 176.432 1.34323 175.837 1.96077C175.242 2.57832 174.779 3.31139 174.479 4.11468L174.236 4.75023C174.169 4.80997 174.117 4.88452 174.085 4.96779C166.198 25.2706 156.944 49.2438 147.308 74.2925L147.297 74.3191C116.153 155.283 81.03 247.487 75.2057 263.395C69.2629 279.628 55.4357 291.028 49.6174 295.269C49.4449 295.395 49.3166 295.572 49.2508 295.774C49.1849 295.977 49.1849 296.196 49.2507 296.399C49.3165 296.602 49.4447 296.778 49.6171 296.904C49.7895 297.03 49.9972 297.098 50.2105 297.098H133.102C134.604 297.098 136.07 296.643 137.306 295.792C138.543 294.941 139.493 293.735 140.029 292.332L193.277 153.25V153.255L277.065 297.097H346.073C347.2 297.097 348.306 296.801 349.281 296.237C350.256 295.674 351.066 294.863 351.628 293.886C352.189 292.91 352.484 291.803 352.481 290.677C352.479 289.55 352.179 288.445 351.613 287.471Z" fill="white"/>
</svg>
