<svg width="100" height="100" viewBox="0 0 100 100" fill="none" xmlns="http://www.w3.org/2000/svg">
<path fill-rule="evenodd" clip-rule="evenodd" d="M75.7883 18L46.564 47.2243C44.8485 48.9398 44.846 51.7283 46.5643 53.4466C48.2791 55.1614 51.0684 55.165 52.7865 53.4469L82 24.2334V34.0032C82 36.2059 83.7909 38 86 38C88.2046 38 90 36.2106 90 34.0032V13.9968C90 12.896 89.5527 11.8972 88.8295 11.1734C88.1051 10.4484 87.1063 10 86.0032 10H65.9968C63.7941 10 62 11.7909 62 14C62 16.2046 63.7894 18 65.9968 18H75.7883ZM90 58V38.9851V80.0297C90 85.5361 86.0328 90 81.1329 90H18.8671C13.9699 90 10 85.5274 10 80.0297V19.9703C10 14.4639 13.9672 10 18.8671 10H61.5665H42C44.2091 10 46 11.7909 46 14C46 16.2091 44.2091 18 42 18H20.2778C19.0053 18 18 19.1947 18 20.6685V79.3315C18 80.7787 19.0198 82 20.2778 82H79.7222C80.9947 82 82 80.8053 82 79.3315V58C82 55.7909 83.7909 54 86 54C88.2091 54 90 55.7909 90 58Z" fill="#202938"/>
</svg>
