<svg width="100" height="100" viewBox="0 0 100 100" fill="none" xmlns="http://www.w3.org/2000/svg">
<path d="M12.1934 50.5134C9.16382 52.152 9.28951 54.5518 12.4657 55.8476L21.8766 59.6862C25.0555 60.9874 29.8657 60.2774 32.5601 58.1097L73.427 24.8845C76.1136 22.706 76.4017 23.0272 74.0686 25.6025L41.7615 61.2519C39.4206 63.8191 40.1119 66.9721 43.3012 68.2436L44.4036 68.6863C47.5929 69.9578 52.7907 72.0931 55.959 73.4212L66.3964 77.8025C69.5674 79.1306 72.9557 77.5649 73.8565 74.1636L89.7639 13.884C90.662 10.4827 88.9181 9.03847 85.8885 10.6744L12.1934 50.5134Z" fill="#202938"/>
<path d="M38.0205 89.9774C37.8346 90.5524 44.4568 80.0919 44.4568 80.0919C46.329 77.144 45.2659 73.6266 42.1027 72.2931L34.8809 69.2453C31.7178 67.9118 30.2016 69.4775 31.5109 72.7358C31.5109 72.7358 38.2116 89.3862 38.0205 89.9774Z" fill="#202938"/>
</svg>
