<svg width="100" height="100" viewBox="0 0 100 100" fill="none" xmlns="http://www.w3.org/2000/svg">
<path d="M83.6549 21.8671C81.6343 19.8454 79.2352 18.2416 76.5946 17.1474C73.954 16.0532 71.1237 15.49 68.2654 15.49C65.4071 15.49 62.5768 16.0532 59.9362 17.1474C57.2956 18.2416 54.8965 19.8454 52.8759 21.8671L50.2343 24.4974L47.5814 21.8501C45.5864 19.7278 43.1852 18.028 40.5206 16.8517C37.8559 15.6754 34.982 15.0466 32.0696 15.0025C29.1572 14.9584 26.2656 15.5 23.5665 16.5952C20.8675 17.6903 18.4161 19.3167 16.3578 21.3776C14.2995 23.4386 12.6763 25.8922 11.5846 28.5926C10.493 31.2931 9.95509 34.1854 10.0029 37.0977C10.0508 40.0101 10.6833 42.8832 11.8631 45.5463C13.0429 48.2094 14.7457 50.6084 16.8706 52.6006L48.9902 84.7202C49.3194 85.0319 49.7555 85.2056 50.2088 85.2056C50.6621 85.2056 51.0981 85.0319 51.4273 84.7202L83.6208 52.6517C87.6997 48.5675 89.9936 43.0331 90 37.2608C90.0064 31.4886 87.7247 25.9491 83.6549 21.8558V21.8671Z" fill="#202938"/>
</svg>
