<svg width="400" height="400" viewBox="0 0 400 400" fill="none" xmlns="http://www.w3.org/2000/svg">
<rect width="400" height="400" fill="white"/>
<path d="M290.365 126.363L214.688 79.704C205.697 74.1625 194.552 74.1625 185.466 79.704L109.787 126.363C100.797 131.906 95.1771 142.209 95.1771 153.388V246.611C95.1771 257.692 100.704 267.997 109.788 273.635L185.466 320.295C189.962 323.113 195.019 324.474 200.077 324.474C205.135 324.474 210.193 323.113 214.688 320.295L290.365 273.635C299.358 268.093 304.976 257.789 304.976 246.611V153.388C304.976 142.209 299.451 131.904 290.365 126.363Z" fill="white"/>
<path d="M290.365 126.359L214.688 79.6996C210.193 76.8801 205.135 75.5179 200.077 75.5179C195.019 75.5179 189.962 76.8801 185.466 79.6996L109.787 126.358C100.797 131.9 95.1771 142.204 95.1771 153.382V246.605C95.1771 257.687 100.704 267.991 109.788 273.629L185.466 320.289C189.962 323.109 195.019 324.47 200.077 324.47C205.135 324.47 210.193 323.109 214.688 320.289L290.365 273.629C299.358 268.089 304.976 257.785 304.976 246.605V153.382C304.976 142.204 299.451 131.899 290.365 126.359ZM188.183 315.429L112.504 268.769C105.105 264.201 100.516 255.743 100.516 246.605V153.382C100.516 144.246 105.105 135.692 112.504 131.219L188.184 84.5605C191.836 82.3251 195.957 81.1581 200.172 81.1581C204.387 81.1581 208.508 82.324 212.16 84.5605L287.839 131.22C294.113 135.109 298.328 141.719 299.452 149.204C296.924 143.663 291.304 142.108 284.654 146.093L213.003 191.879C204.105 197.322 197.456 203.349 197.456 214.528V306.099C197.456 312.806 200.078 317.083 204.012 318.346C202.701 318.54 201.389 318.735 200.077 318.735C195.957 318.833 191.742 317.666 188.183 315.43V315.429Z" fill="#283037"/>
<path d="M270.603 255.646L251.778 267.311C251.309 267.602 250.935 267.991 250.935 268.574V273.726C250.935 274.309 251.309 274.601 251.871 274.309L270.978 262.256C271.446 261.964 271.54 261.381 271.54 260.797V256.326C271.446 255.548 271.072 255.354 270.603 255.646Z" fill="#4DA825"/>
<path d="M230.424 212.483C231.08 212.192 231.547 212.581 231.547 213.359L231.641 220.164C234.358 218.997 236.698 218.705 238.853 219.288C239.322 219.386 239.509 220.066 239.322 220.844L237.916 226.871C237.823 227.357 237.541 227.746 237.261 228.037C237.167 228.135 236.98 228.231 236.886 228.328C236.698 228.426 236.511 228.426 236.324 228.426C235.388 228.232 233.046 227.648 229.299 229.592C225.46 231.633 224.148 235.133 224.148 237.66C224.148 240.771 225.74 241.646 230.985 241.743C238.01 241.841 241.007 245.048 241.101 252.34C241.194 259.533 237.448 267.212 231.828 271.975L231.922 278.683C231.922 279.461 231.454 280.433 230.798 280.724L226.959 283.057C226.303 283.349 225.834 282.96 225.834 282.182L225.74 275.572C222.462 277.03 219.184 277.322 217.03 276.447C216.656 276.252 216.467 275.669 216.656 274.989L218.061 268.962C218.154 268.475 218.435 267.99 218.716 267.698C218.809 267.601 218.997 267.503 219.091 267.407C219.278 267.309 219.558 267.309 219.747 267.309C221.994 268.087 224.991 267.698 227.8 266.24C231.36 264.394 233.795 260.602 233.702 256.811C233.702 253.408 231.922 251.951 227.613 251.951C222.087 251.951 217.03 250.881 216.936 242.424C216.843 235.522 220.308 228.328 225.834 223.76L225.74 216.955C225.74 216.081 226.209 215.205 226.864 214.914L230.424 212.483Z" fill="white"/>
</svg>
